<?xml version="1.0" encoding="utf-8"?>
<!-- Generator: Adobe Illustrator 27.0.0, SVG Export Plug-In . SVG Version: 6.00 Build 0)  -->
<svg version="1.1" id="Layer_1" xmlns="http://www.w3.org/2000/svg" xmlns:xlink="http://www.w3.org/1999/xlink" x="0px" y="0px"
	 viewBox="0 0 595.28 841.89" style="enable-background:new 0 0 595.28 841.89;" xml:space="preserve">
<style type="text/css">
	.st0{fill:#6B6C6F;stroke:#000000;stroke-miterlimit:10;}
	.st1{fill:none;stroke:#000000;stroke-miterlimit:10;}
	.st2{stroke:#000000;stroke-miterlimit:10;}
	.st3{fill:#FFFFFF;stroke:#000000;stroke-width:0.25;stroke-miterlimit:10;}
	.st4{fill:#FFFFFF;stroke:#000000;stroke-miterlimit:10;}
</style>
<g>
	<g>
		<path d="M156.43,694.35c-3.37,11.32-6.81,22.62-10.1,33.97c-3.08,10.63-5.87,21.73-5.25,32.89c0.53,9.67,3.8,18.71,9.95,26.2
			c5.46,6.66,12.8,11.58,20.73,14.82c7.87,3.22,16.58,4.65,25.07,4.01c9.54-0.72,18.76-3.65,27.16-8.18
			c17.43-9.39,30.43-25.08,39.2-42.58c9.7-19.37,15.21-40.82,19.4-61.98c0.57-2.86,1.1-5.73,1.6-8.6c0.23-1.33-0.36-2.69-1.75-3.08
			c-1.2-0.33-2.84,0.41-3.08,1.75c-1.92,11.06-4.33,22.03-7.24,32.87c-2.61,9.71-5.62,19.36-9.58,28.61
			c-7.43,17.37-18.28,33.61-34.06,44.42c-14.27,9.77-31.98,14.74-49,10.11c-15.61-4.24-29.24-15.77-32.61-32.04
			c-2.15-10.4-0.18-21.2,2.45-31.32c2.84-10.9,6.3-21.66,9.51-32.45c0.8-2.69,1.6-5.39,2.41-8.08
			C162.18,692.58,157.35,691.26,156.43,694.35L156.43,694.35z"/>
	</g>
</g>
<ellipse class="st0" cx="295.62" cy="210.1" rx="133.47" ry="45.63"/>
<g>
	<g>
		<path d="M161.9,217.88c-1.43-8.13,2.94-16.11,8.76-21.48c6.66-6.15,15.67-9.02,24.33-10.99c10.04-2.28,20.26-3.9,30.42-5.61
			c10.49-1.77,21.01-3.4,31.54-4.91c10.49-1.5,21.01-2.86,31.54-4.1c10.75-1.26,21.56-2.34,32.4-1.99
			c20.38,0.66,40.19,6.79,59.16,13.88c16.93,6.33,33.78,14.19,47.51,26.17c1.75,1.52,3.44,3.11,5.07,4.76
			c2.27,2.28,5.81-1.25,3.54-3.54c-13.57-13.63-30.77-22.68-48.47-29.77c-19.25-7.7-39.48-14.29-60.23-16.1
			c-11-0.96-22.04-0.24-33,0.92c-11,1.17-21.98,2.6-32.95,4.12c-21.59,2.98-43.23,6.26-64.58,10.64
			c-9.31,1.91-18.95,4.59-26.66,10.39c-7.18,5.4-12.67,13.35-13.52,22.45c-0.2,2.18-0.04,4.34,0.34,6.48
			c0.23,1.33,1.86,2.08,3.08,1.75C161.56,220.57,162.13,219.21,161.9,217.88L161.9,217.88z"/>
	</g>
</g>
<line class="st1" x1="297.8" y1="328.87" x2="297.8" y2="684.23"/>
<line class="st1" x1="293.44" y1="328.87" x2="293.44" y2="684.23"/>
<ellipse class="st2" cx="351.62" cy="147.2" rx="43.03" ry="78.2"/>
<ellipse class="st2" cx="249.85" cy="147.2" rx="43.03" ry="78.2"/>
<ellipse class="st3" cx="249.85" cy="155.2" rx="33.95" ry="61.71"/>
<ellipse class="st4" cx="351.62" cy="155.2" rx="33.95" ry="61.71"/>
<g>
	<g>
		<path d="M290.18,318.68c-7.67-1.64-12.9-8.26-14.83-15.59c-1.15-4.38-1.25-8.96-0.81-13.45c0.48-4.87,1.69-9.69,0.31-14.53
			c-0.88-3.09-5.71-1.78-4.82,1.33c1.09,3.81,0.18,7.81-0.31,11.65c-0.49,3.83-0.58,7.71-0.08,11.55
			c0.91,7.05,3.76,13.89,9.19,18.66c2.87,2.52,6.28,4.4,10.03,5.2C291.99,324.17,293.33,319.35,290.18,318.68L290.18,318.68z"/>
	</g>
</g>
<g>
	<g>
		<path d="M159.33,224.33c0.07,56.54,0.13,113.08,0.2,169.61c0.03,27.96,0.46,56.01-2.3,83.87c-1.36,13.79-3.33,27.51-4.22,41.34
			c-0.9,13.98-0.5,27.99,0.14,41.97c1.44,31.69,3.09,63.37,4.64,95.05c0.16,3.2,5.16,3.22,5,0c-1.38-28.26-2.77-56.51-4.15-84.77
			c-0.68-13.99-1.41-28-1.08-42.01c0.33-13.89,2.02-27.67,3.58-41.46c3.15-27.84,3.43-55.68,3.4-83.66
			c-0.03-28.13-0.07-56.25-0.1-84.38c-0.04-31.86-0.07-63.71-0.11-95.57C164.33,221.12,159.33,221.11,159.33,224.33L159.33,224.33z"
			/>
	</g>
</g>
<g>
	<g>
		<path d="M427.54,220.55c0.71,60.38,1.42,120.76,2.14,181.14c0.36,30.19,0.71,60.38,1.07,90.57c0.35,29.77,0.83,59.56-2.99,89.15
			c-3.95,30.59-10.94,62.51-0.91,92.69c1.01,3.04,5.84,1.74,4.82-1.33c-8.98-27.01-3.86-55.71-0.02-83.16
			c2.02-14.43,3.44-28.88,3.97-43.45c0.54-14.65,0.42-29.32,0.25-43.98c-0.69-60.07-1.42-120.13-2.13-180.2
			c-0.4-33.81-0.8-67.63-1.2-101.44C432.5,217.33,427.5,217.32,427.54,220.55L427.54,220.55z"/>
	</g>
</g>
<g>
	<g>
		<path d="M291.66,334.18c0.05,21.86,0.09,43.72,0.14,65.57c0.05,21.97,0.09,43.93,0.14,65.9c0.04,21.79,0.13,43.58,0.13,65.37
			c0,21.41-0.29,42.88-2.67,64.18c-0.59,5.33-1.33,10.64-2.23,15.93c-0.87,5.11-1.95,10.28-1.78,15.49
			c0.15,4.85,1.66,9.18,3.65,13.55c1.67,3.67,3.82,7.46,4.31,11.52c0.22,1.79,0,3.57-0.8,5.19c-1.41,2.88,2.9,5.41,4.32,2.52
			c4.12-8.38-1.38-16.33-4.48-24c-1.92-4.75-2.28-9.46-1.72-14.53c0.58-5.23,1.71-10.4,2.46-15.61c3.06-21.44,3.79-43.11,3.92-64.74
			c0.13-21.94-0.04-43.89-0.08-65.83c-0.05-22.07-0.09-44.15-0.14-66.22c-0.05-21.97-0.09-43.93-0.14-65.9
			c-0.01-2.8-0.01-5.6-0.02-8.4C296.65,330.96,291.65,330.96,291.66,334.18L291.66,334.18z"/>
	</g>
</g>
<g>
	<g>
		<path d="M160.89,225.46c15.08,11.61,33.25,18.11,51.3,23.53c19.76,5.93,39.82,12.14,60.43,14.18c21.45,2.12,42.65-2.11,63.52-6.62
			c10.47-2.27,20.89-4.72,31.27-7.36c9.64-2.45,19.3-4.94,28.8-7.9c14.89-4.63,30.62-11.33,39.56-24.82
			c1.08-1.62,2.01-3.33,2.83-5.1c0.57-1.22,0.35-2.69-0.9-3.42c-1.08-0.63-2.85-0.33-3.42,0.9c-6.57,14.16-21.13,21.48-35.24,26.26
			c-8.69,2.95-17.61,5.25-26.48,7.58c-10.19,2.67-20.42,5.17-30.69,7.48c-20.26,4.56-41.02,9.4-61.93,8.52
			c-20.55-0.86-40.46-6.94-60.08-12.65c-17.62-5.13-35.46-10.68-50.89-20.91c-1.9-1.26-3.75-2.59-5.56-3.99
			c-1.07-0.82-2.8-0.16-3.42,0.9C159.24,223.32,159.82,224.63,160.89,225.46L160.89,225.46z"/>
	</g>
</g>
<g>
	<g>
		<path d="M159.58,648.27c0.87,14.41,0.51,28.87-1.07,43.21c-0.15,1.34,1.26,2.5,2.5,2.5c1.48,0,2.35-1.15,2.5-2.5
			c1.59-14.35,1.94-28.81,1.07-43.21C164.39,645.07,159.39,645.05,159.58,648.27L159.58,648.27z"/>
	</g>
</g>
<g>
	<g>
		<path d="M290.91,651.58c0,9.96,0,19.93,0,29.89c0,3.22,5,3.22,5,0c0-9.96,0-19.93,0-29.89
			C295.91,648.36,290.91,648.36,290.91,651.58L290.91,651.58z"/>
	</g>
</g>
<g>
	<g>
		<path d="M169.64,745.99c15.69-0.49,32.26-0.47,46.51,7.02c0.54,0.28,1.34,0.06,1.87-0.14c0.14-0.05,1.33-0.62,0.85-0.86
			c-14.71-7.74-31.8-7.75-48-7.24c-0.51,0.02-1.65,0.21-1.94,0.7C168.65,745.99,169.2,746.01,169.64,745.99L169.64,745.99z"/>
	</g>
</g>
<g>
	<g>
		<path d="M222.64,748.4c-0.32-1.67-1.82-2.57-3.25-3.25c-2.06-0.98-4.19-1.85-6.3-2.72c-4.18-1.73-8.42-3.3-12.77-4.55
			c-8.56-2.46-17.51-3.61-26.34-2.1c-0.41,0.07-1.64,0.34-1.67,0.91c-0.03,0.59,0.81,0.57,1.22,0.5c8.36-1.42,16.83-0.25,24.91,2.12
			c4.04,1.18,7.99,2.65,11.89,4.24c1.87,0.77,3.72,1.57,5.57,2.38c1.54,0.68,3.49,1.38,3.84,3.24
			C219.91,750.03,222.82,749.34,222.64,748.4L222.64,748.4z"/>
	</g>
</g>
<g>
	<g>
		<path d="M230.96,730.1c-1.6-2.55-4.38-3.8-7.19-4.56c-3.63-0.98-7.43-1.39-11.13-2.01c-7.53-1.26-15.26-3.08-22.94-2.61
			c-3.99,0.25-7.89,1.25-11.35,3.3c-0.46,0.27-0.79,0.76-0.26,1.12c0.53,0.36,1.57,0.01,2.05-0.27c7.45-4.42,16.85-2.29,24.87-0.95
			c4.73,0.79,9.48,1.51,14.19,2.38c3.44,0.63,7.09,1.6,9.06,4.74C228.77,732.03,231.59,731.1,230.96,730.1L230.96,730.1z"/>
	</g>
</g>
<g>
	<g>
		<path d="M234.08,719.29c-3.45-1.75-7.27-1.98-11.04-2.52c-4.04-0.58-7.97-1.7-11.91-2.75c-7.76-2.07-15.69-3.51-23.52-0.94
			c-0.31,0.1-1.14,0.42-0.86,0.84c0.25,0.39,1.59-0.06,1.87-0.15c7.15-2.34,14.99,0.01,21.96,1.89c3.47,0.93,6.95,1.83,10.52,2.32
			c3.48,0.48,7.07,0.71,10.26,2.32c0.54,0.27,1.34,0.04,1.87-0.15C233.35,720.08,234.55,719.52,234.08,719.29L234.08,719.29z"/>
	</g>
</g>
<g>
	<g>
		<path d="M166.39,691.42c1.19-3.87,3.36-7.36,6.35-10.1c3-2.75,6.61-4.04,10.27-5.64c3.28-1.43,6.52-3.37,7.96-6.82
			c0.84-2.03,1.05-4.26,1.35-6.42c0.33-2.36,0.79-4.7,1.37-7.02c1.08-4.31,2.39-9.22,5.12-12.82c2.32-3.07,5.65-4.45,9.44-4.38
			c7.7,0.14,15.31,4.1,21.37,8.58c6.98,5.16,13.13,12.69,12.5,21.85c0.03,0.04,0.06,0.08,0.09,0.12
			c12.01,6.13,22.03,15.81,28.51,27.64c0.42,0.77,3.18-0.27,2.9-0.78c-5.5-10.03-13.51-18.62-23.17-24.74
			c-1.23-0.78-2.48-1.52-3.76-2.21c-0.55-0.3-1.43-0.54-1.64-1.17c-0.18-0.55,0.03-1.58,0-2.19c-0.16-2.61-0.89-5.16-2.04-7.5
			c-2.33-4.75-6.16-8.65-10.35-11.8c-7.89-5.93-19.11-11.3-29.13-8.19c-2.36,0.73-4.56,1.95-6.3,3.72
			c-2.05,2.09-3.29,4.82-4.29,7.53c-1.12,3.03-2.01,6.14-2.68,9.31c-0.66,3.11-0.8,6.35-1.63,9.42c-0.87,3.2-2.92,5.29-5.84,6.73
			c-2.66,1.31-5.52,2.17-8.1,3.63c-5.3,3-9.36,7.91-11.16,13.74C163.32,692.56,166.15,692.2,166.39,691.42L166.39,691.42z"/>
	</g>
</g>
<g>
	<g>
		<path d="M232.46,708.12c-3.32-1.82-6.68-3.58-10.25-4.87c-3.44-1.24-7.01-2.09-10.63-2.63c-7.3-1.1-14.7-1.07-22.07-1
			c-0.58,0.01-1.62,0.19-1.91,0.79c-0.28,0.58,0.24,0.85,0.78,0.84c7.14-0.06,14.34-0.13,21.42,0.94c3.5,0.53,6.98,1.32,10.31,2.54
			c3.49,1.28,6.79,3,10.04,4.79C230.97,709.96,233.64,708.77,232.46,708.12L232.46,708.12z"/>
	</g>
</g>
<g>
	<g>
		<path d="M233.33,699.72c-1.7-5.53-10.01-5.13-14.51-5.36c-3.42-0.17-6.69-0.56-9.95-1.65c-3.12-1.04-6.19-2.26-9.54-2.23
			c-0.6,0.01-1.62,0.18-1.91,0.81c-0.27,0.59,0.23,0.94,0.81,0.93c3.04-0.03,5.85,1.11,8.68,2.07c2.92,0.99,5.88,1.49,8.96,1.7
			c3.02,0.21,6.11,0.14,9.09,0.71c2.26,0.43,4.74,1.4,5.47,3.79C230.77,701.58,233.66,700.79,233.33,699.72L233.33,699.72z"/>
	</g>
</g>
<g>
	<g>
		<path d="M410.88,687.82c2.93,9.99,5.9,19.97,8.79,29.97c2.69,9.3,5.23,18.87,5.01,28.63c-0.18,8.02-2.56,15.9-7.63,22.21
			c-4.5,5.6-10.56,9.97-17.22,12.65c-6.93,2.79-14.37,3.94-21.81,3.24c-7.91-0.74-15.58-3.47-22.45-7.4
			c-15.02-8.58-25.81-22.49-33.24-37.89c-4-8.29-7.04-17-9.61-25.82c-2.79-9.58-5.09-19.32-6.99-29.12
			c-0.5-2.57-0.97-5.14-1.41-7.72c-0.23-1.33-1.87-2.08-3.08-1.75c-1.41,0.39-1.98,1.74-1.75,3.08
			c3.42,19.93,8.13,40.07,16.17,58.69c7.24,16.78,18.02,32.17,33.41,42.38c13.92,9.24,31.29,13.48,47.59,8.68
			c15.48-4.56,28.86-16.5,32.1-32.72c2.01-10.04,0.46-20.34-1.99-30.16c-2.58-10.32-5.83-20.49-8.83-30.7
			c-0.74-2.53-1.49-5.06-2.23-7.59C414.8,683.41,409.97,684.72,410.88,687.82L410.88,687.82z"/>
	</g>
</g>
<g>
	<g>
		<path d="M404.73,735.5c-16.57-0.52-33.99-0.38-49.03,7.53c-0.38,0.2-0.86,0.5-0.34,0.8c0.47,0.27,1.61-0.14,2.03-0.36
			c13.92-7.32,30.16-7.22,45.48-6.74c0.64,0.02,1.55-0.12,2.05-0.55C405.28,735.86,405.37,735.52,404.73,735.5L404.73,735.5z"/>
	</g>
</g>
<g>
	<g>
		<path d="M354.31,739.31c0.34-1.77,2.19-2.34,3.65-2.98c1.85-0.82,3.71-1.61,5.58-2.37c3.85-1.57,7.75-3,11.75-4.13
			c7.85-2.23,16.01-3.27,24.1-1.89c0.64,0.11,1.57-0.1,2.05-0.55c0.42-0.39,0.38-0.78-0.24-0.89c-9.1-1.55-18.36-0.27-27.15,2.33
			c-4.46,1.32-8.83,2.96-13.12,4.75c-2.06,0.86-4.13,1.71-6.14,2.69c-1.47,0.72-3.04,1.74-3.37,3.46
			C351.24,740.68,354.14,740.2,354.31,739.31L354.31,739.31z"/>
	</g>
</g>
<g>
	<g>
		<path d="M345.79,721.43c1.94-3.09,5.66-3.8,9.01-4.37c4.79-0.81,9.58-1.6,14.38-2.4c8.07-1.35,17.03-2.99,24.48,1.42
			c0.8,0.48,3.48-0.7,2.31-1.39c-6.27-3.72-13.85-3.45-20.82-2.49c-4.06,0.56-8.1,1.3-12.14,1.97c-3.77,0.63-7.6,1.1-11.32,1.99
			c-3.3,0.8-6.71,2.22-8.58,5.21C342.39,722.5,345.29,722.23,345.79,721.43L345.79,721.43z"/>
	</g>
</g>
<g>
	<g>
		<path d="M342.17,710.72c3.08-1.56,6.62-1.65,9.97-2.14c3.63-0.53,7.18-1.49,10.72-2.44c7.15-1.92,14.61-3.81,21.89-1.43
			c0.6,0.2,1.49-0.09,2.03-0.37c0.29-0.14,0.96-0.57,0.35-0.77c-7.75-2.54-15.98-0.64-23.6,1.4c-3.97,1.06-7.92,2.14-12,2.66
			c-3.79,0.49-7.59,0.92-11.04,2.67c-0.37,0.19-0.86,0.49-0.35,0.77C340.62,711.35,341.75,710.94,342.17,710.72L342.17,710.72z"/>
	</g>
</g>
<g>
	<g>
		<path d="M410.55,682c-1.24-4.03-3.56-7.68-6.69-10.51c-3.11-2.82-6.83-4.21-10.62-5.84c-1.81-0.78-3.61-1.68-5.07-3.04
			c-1.7-1.59-2.55-3.67-3-5.91c-0.48-2.42-0.69-4.89-1.17-7.32c-0.51-2.57-1.16-5.1-1.96-7.59c-1.32-4.1-2.92-8.54-6.46-11.26
			c-3.02-2.31-6.89-3-10.61-2.83c-8.16,0.37-16.19,4.27-22.7,9.01c-7.3,5.31-13.88,13.1-13.23,22.67c0.2-0.21,0.4-0.42,0.6-0.63
			c-12.29,6.27-22.55,16.13-29.18,28.24c-0.27,0.5,1.02,0.37,1.18,0.35c0.54-0.08,1.4-0.3,1.69-0.83
			c6.38-11.63,16.19-21.25,28.01-27.28c0.23-0.12,0.62-0.31,0.6-0.63c-0.56-8.11,4.35-15.03,10.34-20
			c5.72-4.75,13.21-9.01,20.76-9.59c3.65-0.28,7.36,0.47,10.22,2.86c3.42,2.86,4.9,7.46,6.16,11.57c1.38,4.49,1.94,9.03,2.78,13.62
			c0.75,4.08,2.87,6.89,6.55,8.77c3.84,1.96,7.97,3.06,11.38,5.8c3.57,2.87,6.18,6.75,7.52,11.13
			C407.87,683.51,410.76,682.7,410.55,682L410.55,682z"/>
	</g>
</g>
<g>
	<g>
		<path d="M343.65,699.97c3.21-1.77,6.47-3.46,9.93-4.7c3.24-1.17,6.63-1.92,10.04-2.41c6.93-1,13.95-0.95,20.93-0.88
			c0.58,0.01,1.63-0.2,1.91-0.79c0.29-0.58-0.24-0.84-0.78-0.84c-7.52-0.07-15.11-0.11-22.56,1.06c-3.64,0.57-7.22,1.44-10.68,2.69
			c-3.68,1.33-7.16,3.15-10.58,5.03c-0.47,0.26-0.78,0.77-0.26,1.12C342.14,700.61,343.15,700.24,343.65,699.97L343.65,699.97z"/>
	</g>
</g>
<g>
	<g>
		<path d="M343.62,690.68c0.67-2.2,2.99-3,5.06-3.32c2.97-0.46,6-0.44,8.99-0.66c2.94-0.21,5.79-0.71,8.59-1.64
			c2.74-0.92,5.51-2.13,8.45-2.09c0.6,0.01,1.62-0.19,1.91-0.81c0.28-0.59-0.24-0.93-0.81-0.93c-3.36-0.04-6.42,1.07-9.56,2.13
			c-3.46,1.18-6.89,1.59-10.53,1.77c-4.81,0.24-13.23,0.07-15.02,5.89C340.38,692.1,343.3,691.72,343.62,690.68L343.62,690.68z"/>
	</g>
</g>
<g>
	<g>
		<path d="M427.64,670.05c-0.21,5.34-2.84,10.55-7.13,14.03c-0.93,0.76-2.32,1.46-3.34,2.33c-1.42,1.21-2.21,3.32-1.15,5.02
			c0.96,1.53,3.04,1.8,4.54,0.97c1.65-0.91,2.28-3.36,0.67-4.66c-1.05-0.85-2.51-1.03-3.54,0c-0.88,0.88-1.06,2.68,0,3.54
			c-0.14-0.27-0.28-0.54-0.43-0.81c0-0.44,0-0.89,0-1.33c0.13-0.5,0.42-0.85,0.86-1.03c0.42-0.21,0.5-0.27,0.21-0.17
			c1.03-0.31,2.41,0.95,2.11,2c-0.16,0.56-0.19,0.25,0.04,0.2c-0.21,0.05,0.34-0.24,0.38-0.26c1.02-0.65,1.99-1.3,2.94-2.06
			c1.76-1.41,3.26-3.1,4.56-4.94c2.63-3.74,4.09-8.25,4.27-12.81c0.05-1.35-1.19-2.5-2.5-2.5
			C428.74,667.55,427.69,668.69,427.64,670.05L427.64,670.05z"/>
	</g>
</g>
<g>
	<g>
		<path d="M294.7,640.86c-0.03-4.22-0.07-8.44-0.1-12.66c-0.02-2.07-0.03-4.14-0.05-6.21c-0.01-1.54-0.31-3.46,0.27-4.93
			c0.49-1.23,2.09-1.79,2.97-2.72c1.42-1.49,1.82-3.45,1.97-5.44c0.31-3.93,0.22-7.92-0.1-11.84c-0.38-4.66-1.14-9.29-2.26-13.83
			c-0.77-3.12-5.6-1.8-4.82,1.33c1.21,4.89,1.98,9.85,2.24,14.88c0.13,2.54,0.15,5.09,0.04,7.63c-0.04,1.01,0.02,2.17-0.33,3.15
			c-0.27,0.76-0.89,1.11-1.51,1.57c-2.06,1.52-3.12,3.36-3.41,5.9c-0.27,2.39-0.07,4.88-0.05,7.28c0.04,5.3,0.09,10.59,0.13,15.89
			C289.72,644.07,294.72,644.08,294.7,640.86L294.7,640.86z"/>
	</g>
</g>
<g>
	<ellipse class="st2" cx="351.62" cy="166.31" rx="16.98" ry="30.85"/>
	<g>
		<path d="M343.93,135.33c-3.59,3.4-4.53,8.69-4.97,13.61c-0.96,10.94-0.38,22.01,1.73,32.78c0.81,4.14,1.92,8.4,4.65,11.62
			c2.73,3.22,7.51,5.05,11.31,3.21c3.82-1.85,5.28-6.48,6.1-10.66c1.31-6.68,1.97-13.49,1.98-20.3c0.01-7.06-0.79-14.44-4.61-20.38
			c-3.82-5.94-11.4-9.95-18.1-7.71"/>
		<g>
			<path d="M342.95,135.43c-3.37,3.29-4.45,7.94-4.94,12.47c-0.63,5.81-0.72,11.71-0.43,17.54c0.3,5.96,1.03,11.93,2.27,17.78
				c0.98,4.61,2.59,9.61,6.63,12.44c3.41,2.39,7.98,2.74,11.6,0.57c3.66-2.19,4.96-6.6,5.74-10.54c1.14-5.75,1.78-11.61,1.95-17.47
				c0.15-5.34,0.01-10.81-1.4-16c-1.43-5.25-4.29-10.07-8.94-13.06c-4.17-2.68-9.05-3.37-13.77-1.87c-0.21,0.07-0.85,0.28-0.66,0.57
				c0.17,0.26,1.22-0.09,1.39-0.15c4.05-1.28,8.61,0.4,11.9,2.8c3.62,2.64,6.02,6.46,7.42,10.68c1.48,4.45,1.89,9.18,1.92,13.84
				c0.04,5.31-0.33,10.62-1.08,15.88c-0.62,4.28-1.16,9.18-3.65,12.86c-1.28,1.89-3.11,3.28-5.49,3.07
				c-2.06-0.19-4.04-1.15-5.62-2.46c-3.53-2.92-4.92-7.64-5.82-11.95c-1.08-5.15-1.76-10.39-2.11-15.64
				c-0.4-5.96-0.35-11.95,0.16-17.9c0.42-4.83,1.25-10.12,4.88-13.67c0.34-0.33-0.31-0.31-0.5-0.3
				C343.98,134.95,343.28,135.11,342.95,135.43L342.95,135.43z"/>
		</g>
	</g>
</g>
<g>
	<ellipse class="st2" cx="255.57" cy="169.54" rx="16.98" ry="30.85"/>
	<g>
		<path d="M263.27,138.57c3.59,3.4,4.53,8.69,4.97,13.61c0.96,10.94,0.38,22.01-1.73,32.78c-0.81,4.14-1.92,8.4-4.65,11.62
			c-2.73,3.22-7.51,5.05-11.31,3.21c-3.82-1.85-5.28-6.48-6.1-10.66c-1.31-6.68-1.97-13.49-1.98-20.3
			c-0.01-7.06,0.79-14.44,4.61-20.38c3.82-5.94,11.4-9.95,18.1-7.71"/>
		<g>
			<path d="M262.24,138.93c3.13,3.06,4.2,7.43,4.71,11.64c0.62,5.11,0.74,10.31,0.6,15.45c-0.15,5.32-0.66,10.64-1.53,15.9
				c-0.75,4.56-1.56,9.46-4.15,13.4c-2.47,3.77-7.15,6.41-11.32,3.52c-3.19-2.21-4.31-6.39-5.02-9.99
				c-1.04-5.25-1.66-10.58-1.88-15.93c-0.2-4.85-0.19-9.78,0.69-14.57c0.93-5.05,2.96-10.11,6.79-13.65
				c3.61-3.33,8.32-5.08,13.14-3.56c0.43,0.14,1.13-0.1,1.52-0.29c0.2-0.1,0.73-0.37,0.28-0.51c-8.79-2.79-18.08,3.43-21.68,11.27
				c-2.14,4.67-2.83,9.87-2.98,14.96c-0.18,5.95,0.22,11.94,1.08,17.82c0.66,4.54,1.24,10,4.34,13.64c2.8,3.3,7.17,3.45,10.98,1.95
				c4.51-1.78,7.14-5.74,8.55-10.23c1.67-5.32,2.37-11.05,2.89-16.58c0.64-6.75,0.69-13.56,0.15-20.31
				c-0.41-5.21-1.19-10.82-5.11-14.65C263.92,137.84,261.96,138.65,262.24,138.93L262.24,138.93z"/>
		</g>
	</g>
</g>
<g>
	<g>
		<path d="M334.93,46.43c17.62,6.35,35.24,12.71,52.86,19.06c7.23,2.61,14.23,4.77,18.52,11.61c4.63,7.39,8.3,15.56,12.34,23.29
			c3.58,6.85,13.94,0.79,10.36-6.06c-4.26-8.15-8.02-16.97-13.18-24.59c-4.93-7.28-11.68-10.97-19.75-13.97
			c-19.25-7.16-38.65-13.94-57.97-20.9C330.84,32.24,327.71,43.83,334.93,46.43L334.93,46.43z"/>
	</g>
</g>
<g>
	<g>
		<path d="M268.38,32.22c-19.52,6.37-39.12,12.56-58.58,19.12c-8.15,2.75-15,6.32-20.08,13.48c-5.34,7.52-9.41,16.15-13.92,24.18
			c-3.79,6.74,6.57,12.8,10.36,6.06c4.27-7.59,8.15-15.69,13.04-22.9c4.53-6.67,11.66-8.55,18.95-10.93
			c17.81-5.81,35.61-11.63,53.42-17.44C278.87,41.4,275.75,29.81,268.38,32.22L268.38,32.22z"/>
	</g>
</g>
<g>
	<g>
		<path d="M194.4,290.03c-0.01-4.9-0.01-9.8-0.02-14.69c-0.01-4.33-0.68-9.34,1.3-13.35c0.28-0.57-0.99-0.55-1.22-0.52
			c-0.61,0.08-1.37,0.34-1.66,0.93c-1.96,3.96-1.32,8.95-1.31,13.23c0.01,5.06,0.01,10.12,0.02,15.18
			C191.5,291.57,194.4,291.07,194.4,290.03L194.4,290.03z"/>
	</g>
</g>
<g>
	<g>
		<path d="M230.47,300.01c-0.23-7.32-0.15-14.66,0.23-21.97c0.05-1-2.84-0.39-2.88,0.43c-0.39,7.43-0.48,14.88-0.25,22.32
			C227.59,301.51,230.5,301,230.47,300.01L230.47,300.01z"/>
	</g>
</g>
<g>
	<g>
		<path d="M348.51,301.75c0-9.41,0-18.81,0-28.22c0-0.65-2.9-0.19-2.9,0.78c0,9.41,0,18.81,0,28.22
			C345.61,303.18,348.51,302.71,348.51,301.75L348.51,301.75z"/>
	</g>
</g>
<g>
	<g>
		<path d="M403.1,289.81c0.5-9.92,0.34-19.86-0.47-29.76c-0.08-1.02-2.99-0.39-2.9,0.78c0.81,9.75,0.96,19.54,0.47,29.32
			C400.14,291.39,403.05,290.84,403.1,289.81L403.1,289.81z"/>
	</g>
</g>
<g>
	<g>
		<path d="M383.73,442.32c0,25.27,0,50.53,0,75.8c0,7.15,0,14.3,0,21.44c0,0.84,2.9,0.31,2.9-0.78c0-25.27,0-50.53,0-75.8
			c0-7.15,0-14.3,0-21.44C386.63,440.71,383.73,441.23,383.73,442.32L383.73,442.32z"/>
	</g>
</g>
<g>
	<g>
		<path d="M401.87,454.85c0,14.96,0,29.92,0,44.88c0,1.59,2.95,1.22,2.95-0.18c0-14.96,0-29.92,0-44.88
			C404.82,453.07,401.87,453.44,401.87,454.85L401.87,454.85z"/>
	</g>
</g>
<g>
	<g>
		<path d="M372.87,484.34c14.38,0.56,28.78,0.32,43.13-0.67c0.5-0.03,1.57-0.38,1.65-0.99c0.09-0.66-0.83-0.66-1.25-0.63
			c-14.11,0.98-28.27,1.18-42.4,0.63c-0.58-0.02-1.63,0.21-1.91,0.79C371.79,484.08,372.32,484.32,372.87,484.34L372.87,484.34z"/>
	</g>
</g>
<g>
	<g>
		<path d="M373.96,498.43c7.84,0,15.67,0,23.51,0c0.64,0,1.59-0.18,1.9-0.84c0.28-0.59-0.24-1.02-0.83-1.02c-7.84,0-15.67,0-23.51,0
			c-0.64,0-1.59,0.18-1.9,0.84C372.84,498,373.37,498.43,373.96,498.43L373.96,498.43z"/>
	</g>
</g>
<g>
	<g>
		<path d="M174.58,303.07c18.51,5.01,36.62,11.44,54.15,19.22c0.74,0.33,3.4-0.81,2.34-1.27c-17.53-7.78-35.64-14.21-54.15-19.22
			c-0.66-0.18-1.45-0.02-2.04,0.32C174.61,302.27,173.9,302.89,174.58,303.07L174.58,303.07z"/>
	</g>
</g>
<g>
	<g>
		<path d="M175.56,304.59c-1.68,11.38-1.65,22.98,0.11,34.35c0.86,5.59,2.11,11.16,3.85,16.55c1.54,4.78,3.6,9.53,6.81,13.45
			c6.1,7.45,16.49,10.81,25.11,5.6c4.12-2.49,7.21-6.32,9.86-10.27c2.88-4.29,5.25-8.92,7.07-13.76c4.07-10.8,5.44-22.48,3.89-33.92
			c-0.17-1.29-3.08-0.58-2.9,0.78c1.3,9.61,0.44,19.46-2.36,28.74c-1.39,4.58-3.29,9.03-5.62,13.21c-2.26,4.05-4.89,8.06-8.29,11.25
			c-3.29,3.09-7.4,5-11.98,4.38c-4.42-0.6-8.52-3.17-11.45-6.47c-3.21-3.61-5.29-8.02-6.85-12.56c-1.69-4.94-2.92-10.07-3.83-15.21
			c-2.13-12-2.27-24.3-0.49-36.35C178.7,302.93,175.75,303.32,175.56,304.59L175.56,304.59z"/>
	</g>
</g>
<g>
	<g>
		<path d="M180.16,316.96c16.76-1.91,33.97,3.06,47.29,13.37c0.6,0.47,3.09-0.69,2.74-0.96c-13.75-10.64-31.5-15.46-48.75-13.49
			c-0.5,0.06-1.65,0.2-1.94,0.68C179.21,317.02,179.75,317.01,180.16,316.96L180.16,316.96z"/>
	</g>
</g>
<g>
	<g>
		<path d="M412.68,301.03c-18.64,5.04-36.88,11.52-54.53,19.36c-0.54,0.24-1.09,0.9-0.69,1.48c0.41,0.6,1.41,0.46,1.97,0.21
			c17.41-7.73,35.39-14.11,53.78-19.08C414.99,302.52,414.47,300.55,412.68,301.03L412.68,301.03z"/>
	</g>
</g>
<g>
	<g>
		<path d="M410.23,304.45c1.59,10.76,1.64,21.7,0.11,32.47c-0.74,5.24-1.85,10.44-3.32,15.52c-1.36,4.69-3.07,9.34-5.83,13.4
			c-2.59,3.8-6.22,7.04-10.69,8.4c-4.36,1.32-8.75,0.31-12.42-2.3c-3.69-2.63-6.47-6.43-8.87-10.21c-2.62-4.13-4.75-8.55-6.41-13.15
			c-3.69-10.27-4.92-21.36-3.46-32.18c0.16-1.18-2.76-0.68-2.9,0.35c-1.37,10.19-0.43,20.64,2.72,30.43
			c1.57,4.86,3.68,9.53,6.27,13.92c2.45,4.15,5.31,8.28,9.09,11.33c3.67,2.96,8.08,4.52,12.82,4.05c4.66-0.46,9.11-2.69,12.54-5.83
			c3.72-3.39,6.22-7.9,8.04-12.54c2.01-5.13,3.36-10.56,4.4-15.97c2.43-12.66,2.69-25.7,0.81-38.45
			C412.98,302.65,410.06,303.33,410.23,304.45L410.23,304.45z"/>
	</g>
</g>
<g>
	<g>
		<path d="M408.81,315.31c-13.74-1.56-27.86,1.16-40.1,7.57c-3.5,1.83-6.84,3.99-9.96,6.41c-0.49,0.38-0.3,0.7,0.22,0.83
			c0.61,0.15,1.56-0.17,2.05-0.55c12.99-10.06,29.64-14.74,45.97-12.88c0.63,0.07,1.57-0.09,2.05-0.55
			C409.42,315.77,409.46,315.39,408.81,315.31L408.81,315.31z"/>
	</g>
</g>
<g>
	<g>
		<path d="M272.62,693.91c-0.04-3.77,2.97-6.78,6.29-8.14c4.75-1.96,10.27-1.02,15.17-0.26c1.33,0.21,2.69-0.34,3.08-1.75
			c0.33-1.19-0.4-2.87-1.75-3.08c-6.34-0.99-13.03-1.95-19.09,0.79c-4.86,2.2-8.76,6.94-8.7,12.44
			C267.65,697.12,272.65,697.13,272.62,693.91L272.62,693.91z"/>
	</g>
</g>
<g>
	<g>
		<path d="M269.79,689.61c2.12-4.59-1.06-10.2-6.24-10.35c-2.84-0.09-3.37,4.17-0.66,4.91c3.01,0.82,5.6-2.01,5.09-4.95
			c-0.47-2.68-3.09-4.66-4.89-6.51c-0.91-0.93-1.81-1.88-3.02-2.41c-1.38-0.6-2.78-0.52-4.22-0.22c-2.56,0.53-4.81,0.55-7.3-0.35
			c0.61,0.8,1.22,1.61,1.84,2.41c-0.03-1.74-0.5-3.41-1.49-4.86c-0.63-0.92-1.7-1.46-2.82-1.15c-0.97,0.27-1.96,1.34-1.84,2.41
			c0.08,0.64,0.42-0.64,0.11-0.11c0.11-0.19-0.28,0.01,0.04-0.01c0.13-0.01,0.35,0.08,0.44,0.17c-2.31-2.25-5.85,1.29-3.54,3.54
			c2.78,2.7,8.44,0.59,7.94-3.59c-1.55,0.42-3.11,0.84-4.66,1.26c0.51,0.75,0.79,1.43,0.81,2.33c0.02,1.18,0.77,2.02,1.84,2.41
			c1.69,0.61,3.48,0.94,5.28,0.97c0.94,0.01,1.88-0.09,2.8-0.23c0.75-0.12,1.69-0.53,2.45-0.46c0.53,0.05,0.76,0.37,1.15,0.76
			c0.68,0.68,1.34,1.37,2.01,2.06c0.61,0.62,1.3,1.22,1.83,1.91c0.06,0.07,0.39,0.6,0.35,0.59c-0.42-0.14,0.74-0.9,1.11-0.8
			c-0.22,1.64-0.44,3.27-0.66,4.91c1.17,0.04,2.38,1.84,1.92,2.83c-0.57,1.23-0.35,2.69,0.9,3.42
			C267.45,691.14,269.23,690.84,269.79,689.61L269.79,689.61z"/>
	</g>
</g>
<g>
	<g>
		<path d="M164.51,684.8c3.04-0.54,4.67-3.17,5.64-5.85c0.47-1.29,0.8-2.63,1.21-3.94c0.39-1.23,0.53-1.87,1.38-2.96
			c-0.31,0.39,0.29-0.27,0.36-0.33c0.22-0.19,0.23-0.19,0.03-0.02c0.13-0.08,0.26-0.16,0.39-0.23c0.28-0.1,0.03-0.09,0.48-0.15
			c0.18-0.04,0.17-0.04-0.02-0.01c0.17-0.01,0.34-0.02,0.51-0.01c0.31,0.02,0.34,0.02,0.09,0.01c0.17,0.04,0.33,0.08,0.5,0.13
			c0.47,0.14,0.34,0.11,0.63,0.26c0.68,0.36,1.32,0.78,1.94,1.23c2.77,2,5.21,4.09,8.73,4.5c1.09,0.13,2.12-0.87,2.41-1.84
			c2.09-6.95,4.18-13.9,6.28-20.85c1.05-3.47,2.09-6.95,3.14-10.42c0.36-1.2,0.61-2.62,1.4-3.63c0.75-0.96,2.09-1.55,3.19-1.99
			c5.64-2.26,11.99-1.33,17.58,0.6c6.25,2.17,12.08,5.54,18.03,8.4c1.27,0.61,2.58,1.25,3.37,2.47c0.84,1.31,1.15,2.89,1.53,4.38
			c1.03,4,2.05,8,3.08,12.01c0.8,3.11,5.62,1.79,4.82-1.33c-0.99-3.84-1.97-7.68-2.96-11.53c-0.89-3.48-1.86-6.76-4.92-8.94
			c-1.2-0.86-2.56-1.44-3.89-2.06c-1.81-0.85-3.6-1.75-5.38-2.66c-3.21-1.62-6.43-3.22-9.77-4.58c-6.46-2.62-13.75-4.05-20.63-2.28
			c-3.2,0.83-6.81,2.36-8.57,5.32c-0.82,1.38-1.24,2.97-1.69,4.49c-0.57,1.9-1.14,3.79-1.71,5.69c-2.57,8.53-5.13,17.06-7.7,25.59
			c0.8-0.61,1.61-1.22,2.41-1.84c-0.25-0.03-1.05-0.3-1.47-0.52c-0.72-0.37-1.39-0.82-2.04-1.28c-1.31-0.93-2.53-1.99-3.91-2.83
			c-2.93-1.8-6.5-2.11-9.23,0.25c-2.15,1.86-2.95,4.77-3.72,7.39c-0.19,0.66-0.38,1.31-0.61,1.96c-0.03,0.08-0.37,0.97-0.19,0.54
			c-0.12,0.28-0.26,0.56-0.41,0.83c-0.05,0.09-0.56,0.84-0.22,0.4c-0.17,0.22-0.37,0.42-0.58,0.6c0.44-0.36-0.25,0.11-0.37,0.17
			c0.52-0.22-0.35,0.04-0.47,0.06c-1.33,0.24-2.08,1.86-1.75,3.08C161.82,684.45,163.17,685.04,164.51,684.8L164.51,684.8z"/>
	</g>
</g>
<g>
	<g>
		<path d="M294.09,675.11c6.21,1.04,13.21,1.98,18.97-1.24c3.11-1.74,5.04-4.6,6.83-7.58c1.61-2.67,3.46-5.05,5.95-6.97
			c2.45-1.89,5.31-3.24,8.31-3.98c3.19-0.78,6.94-0.6,8.61-4.04c1.38-2.85,0.29-6.05,1.23-9c0.83-2.58,2.81-4.81,5.03-6.32
			c2.85-1.93,6.23-2.89,9.62-3.34c1.72-0.23,3.47-0.32,5.2-0.38c1.88-0.06,3.84-0.22,5.71-0.01c3.19,0.35,4.81,3.14,6.02,5.83
			c1.42,3.16,2.1,6.64,2.85,10.01c1.4,6.39,3.21,12.91,8.13,17.56c2.31,2.19,5.14,3.71,8.31,4.11c0.74,0.09,1.46,0.11,2.2,0.1
			c0.64-0.01,1.55-0.19,2.14,0.11c0.94,0.48,1.35,2.5,1.76,3.37c5.15,11.12,21.21,15.28,31.16,8.21c1.1-0.78,1.62-2.18,0.9-3.42
			c-0.64-1.09-2.31-1.68-3.42-0.9c-7.74,5.5-19.95,2.56-24.19-6.14c-0.66-1.36-1.07-2.79-2.04-3.99c-1.28-1.58-3.09-2.21-5.08-2.26
			c-1.27-0.03-2.52,0.12-3.77-0.19c-1.32-0.33-2.56-0.96-3.63-1.81c-4.8-3.78-6.32-10-7.56-15.66c-0.76-3.47-1.49-6.96-2.85-10.25
			c-1.34-3.26-3.23-6.76-6.46-8.48c-3.19-1.7-7.14-1.31-10.63-1.17c-3.8,0.15-7.69,0.54-11.32,1.74c-6,1.99-11.74,6.56-13.18,12.99
			c-0.34,1.53-0.36,3.04-0.34,4.6c0.01,1.04,0.21,2.44-0.86,2.99c-1.06,0.54-2.59,0.46-3.76,0.68c-1.63,0.32-3.21,0.81-4.74,1.44
			c-3.46,1.43-6.64,3.5-9.26,6.19c-1.32,1.35-2.48,2.86-3.5,4.44c-0.96,1.5-1.79,3.12-2.88,4.54c-4.24,5.51-12.13,4.41-18.15,3.4
			c-1.33-0.22-2.69,0.35-3.08,1.75C292.01,673.24,292.75,674.89,294.09,675.11L294.09,675.11z"/>
	</g>
</g>
<g>
	<g>
		<path d="M202.83,202.49c-1.82,5.49,1.58,10.65,5.81,13.85c4.03,3.05,8.82,5.26,13.53,7.03c9.43,3.54,19.77,4.88,29.79,3.92
			c5.76-0.56,11.42-1.81,16.85-3.85c1.26-0.48,2.13-1.69,1.75-3.08c-0.33-1.21-1.81-2.22-3.08-1.75c-17.02,6.41-36.69,5-52.49-4.1
			c-3.68-2.12-9-5.67-7.34-10.69C208.67,200.75,203.84,199.44,202.83,202.49L202.83,202.49z"/>
	</g>
</g>
<g>
	<g>
		<path d="M206.41,199.53c0.28,3.06,2,5.51,4.51,7.21c2.35,1.6,5.25,2.17,8,2.66c1.28,0.23,2.76-0.35,3.08-1.75
			c0.28-1.22-0.37-2.83-1.75-3.08c-1.19-0.22-2.38-0.43-3.55-0.75c-0.58-0.16-1.14-0.36-1.71-0.56c-0.34-0.12,0.54,0.26-0.01,0
			c-0.11-0.05-0.23-0.11-0.34-0.16c-0.27-0.13-0.53-0.27-0.78-0.42c-0.21-0.12-0.41-0.26-0.61-0.4c-0.2-0.15-0.22-0.32,0.06,0.05
			c-0.06-0.08-0.17-0.14-0.25-0.21c-0.2-0.18-0.4-0.37-0.58-0.56c-0.07-0.08-0.15-0.16-0.22-0.24c-0.03-0.03-0.37-0.44-0.11-0.12
			c0.25,0.31-0.03-0.06-0.08-0.14c-0.07-0.11-0.14-0.22-0.21-0.34c-0.12-0.2-0.2-0.44-0.32-0.63c0.12,0.19,0.18,0.45,0.05,0.08
			c-0.04-0.12-0.08-0.25-0.11-0.38c-0.03-0.1-0.05-0.21-0.07-0.31c-0.13-0.54,0.05,0.6,0,0.04c-0.12-1.3-1.06-2.56-2.5-2.5
			C207.66,197.08,206.28,198.13,206.41,199.53L206.41,199.53z"/>
	</g>
</g>
<g>
	<g>
		<path d="M216.44,197.05c-0.48,2.27-0.96,4.76-0.19,7.03c0.73,2.14,2.29,4.02,4.55,4.6c1.26,0.33,2.77-0.41,3.08-1.75
			c0.3-1.3-0.39-2.73-1.75-3.08c-0.1-0.03-0.19-0.06-0.29-0.08c-0.28-0.07,0.56,0.29,0.21,0.09c-0.11-0.06-0.39-0.29-0.51-0.31
			c0.05,0,0.47,0.4,0.23,0.17c-0.07-0.07-0.15-0.13-0.22-0.21c-0.07-0.07-0.14-0.15-0.2-0.22c-0.27-0.29,0.29,0.42,0.13,0.17
			c-0.1-0.16-0.2-0.31-0.29-0.47c-0.05-0.09-0.09-0.18-0.14-0.27c-0.14-0.26,0.21,0.59,0.08,0.2c-0.14-0.42-0.25-0.83-0.31-1.27
			c0.03,0.22,0.06,0.44,0.09,0.66c-0.1-0.83-0.06-1.65,0.05-2.47c-0.03,0.22-0.06,0.44-0.09,0.66c0.1-0.72,0.25-1.42,0.39-2.13
			c0.27-1.28-0.37-2.76-1.75-3.08C218.26,195.01,216.73,195.68,216.44,197.05L216.44,197.05z"/>
	</g>
</g>
<g>
	<g>
		<path d="M212.3,208.24c0.09,2.54,1.71,4.82,3.97,5.94c2.4,1.19,5.04,1.14,7.64,0.9c0.68-0.06,1.27-0.24,1.77-0.73
			c0.43-0.43,0.76-1.15,0.73-1.77c-0.06-1.25-1.11-2.63-2.5-2.5c-1.01,0.09-2.02,0.18-3.03,0.16c-0.25-0.01-0.5-0.02-0.75-0.04
			c-0.08-0.01-0.47-0.06-0.08,0c0.42,0.06-0.07-0.02-0.16-0.03c-0.25-0.05-0.49-0.11-0.73-0.18c-0.23-0.07-0.84-0.37-0.13-0.01
			c-0.33-0.17-0.66-0.33-0.97-0.55c-0.41-0.28,0.11,0.13,0.14,0.11c-0.02,0.01-0.18-0.15-0.2-0.17c-0.14-0.13-0.28-0.27-0.41-0.42
			c-0.33-0.38,0.12,0.15,0.11,0.15c0,0-0.13-0.19-0.14-0.21c-0.07-0.11-0.34-0.68-0.17-0.26c0.17,0.42-0.04-0.16-0.08-0.3
			c-0.02-0.08-0.03-0.17-0.05-0.25c0.17,0.64,0.05,0.42,0.04,0.15c-0.05-1.31-1.12-2.56-2.5-2.5
			C213.49,205.8,212.25,206.84,212.3,208.24L212.3,208.24z"/>
	</g>
</g>
<g>
	<g>
		<path d="M234.07,225.37c1.94,0,3.87,0,5.81,0c0.64,0,1.31-0.28,1.77-0.73c0.43-0.43,0.76-1.15,0.73-1.77
			c-0.06-1.35-1.1-2.5-2.5-2.5c-1.94,0-3.87,0-5.81,0c-0.64,0-1.31,0.28-1.77,0.73c-0.43,0.43-0.76,1.15-0.73,1.77
			C231.63,224.22,232.67,225.37,234.07,225.37L234.07,225.37z"/>
	</g>
</g>
<g>
	<g>
		<path d="M219.52,212.47c2.37,0.88,4.58,2.46,6.12,4.47c1.14-1.14,2.28-2.28,3.42-3.42c-3.29-1.96-6.03-4.7-8.71-7.41
			c-2.28-2.32-5.14-5.53-4.66-9.08c0.18-1.34-0.32-2.68-1.75-3.08c-1.19-0.33-2.87,0.4-3.08,1.75c-0.17,1.07-0.33,2.14-0.5,3.22
			c-0.08,0.5-0.14,1-0.23,1.5c-0.03,0.19-0.07,0.39-0.12,0.58c0.47-0.55,0.46-0.67-0.02-0.38c-0.31,0.08-2.34,0.81-2.35,0.88
			c0.01-0.11,0.8,0.65,0.82,0.65c-0.08,0.01-0.04-0.89-0.04-1c0.16-2.57,1.96-5.25,4.41-6.24c-0.64-1.52-1.28-3.05-1.93-4.57
			c-3.67,2.44-5.86,6.16-6.37,10.51c-0.16,1.34,1.26,2.5,2.5,2.5c1.48,0,2.34-1.15,2.5-2.5c0.29-2.48,1.83-4.82,3.89-6.2
			c1.03-0.69,1.54-1.95,1.02-3.12c-0.45-1.03-1.78-1.92-2.95-1.45c-2.65,1.07-4.83,2.8-6.32,5.27c-1.38,2.29-2.28,5.47-1.55,8.12
			c0.47,1.7,1.98,2.9,3.73,3c1.54,0.08,2.96-0.61,4.34-1.2c1.56-0.66,2.77-1.5,3.19-3.24c0.39-1.63,0.52-3.36,0.78-5.01
			c-1.61-0.44-3.21-0.89-4.82-1.33c-0.7,5.11,1.68,9.4,5.08,13.05c3.14,3.37,6.6,6.72,10.57,9.09c0.95,0.57,2.25,0.39,3.03-0.39
			c0.72-0.72,1.05-2.16,0.39-3.03c-2.4-3.13-5.4-5.4-9.11-6.77c-1.27-0.47-2.74,0.52-3.08,1.75
			C217.39,210.79,218.25,212,219.52,212.47L219.52,212.47z"/>
	</g>
</g>
<g>
	<g>
		<path d="M273.92,221.8c2.35-3.21,4.7-6.43,7.06-9.64c-1.44-0.84-2.88-1.68-4.32-2.52c-1.4,3.32-3.16,6.54-5.87,8.97
			c-2.77,2.49-6.43,3.58-10,4.34c-4.02,0.85-8.12,1.57-12.21,1.97c-4.15,0.41-8.39,0.45-12.44-0.68c-4.08-1.14-7.63-3.45-10.44-6.61
			c-2.15-2.41-5.67,1.14-3.54,3.54c6.23,6.99,15.22,9.49,24.35,8.92c4.74-0.3,9.48-1.14,14.14-2.03c4.18-0.8,8.48-1.96,11.95-4.53
			c3.89-2.87,6.51-6.97,8.37-11.37c1.25-2.95-2.39-5.16-4.32-2.52c-2.35,3.21-4.7,6.43-7.06,9.64c-0.8,1.09-0.18,2.79,0.9,3.42
			C271.77,223.43,273.12,222.89,273.92,221.8L273.92,221.8z"/>
	</g>
</g>
<g>
	<g>
		<path d="M218.24,221.19c3.85,3.36,8.05,6.7,13.38,6.94c1.31,0.06,2.56-1.19,2.5-2.5c-0.06-1.41-1.1-2.44-2.5-2.5
			c-0.11-0.01-0.68-0.12-0.75-0.06c0.33,0.05,0.39,0.06,0.2,0.03c-0.06-0.01-0.12-0.02-0.18-0.03c-0.12-0.02-0.24-0.04-0.36-0.07
			c-0.51-0.11-1.02-0.25-1.51-0.42c-0.12-0.04-0.23-0.09-0.35-0.13c-0.38-0.14,0.05,0.06,0.08,0.04c-0.08,0.05-0.67-0.31-0.76-0.35
			c-0.48-0.24-0.95-0.5-1.4-0.78c-0.43-0.27-0.86-0.55-1.28-0.84c-0.24-0.17-0.47-0.34-0.7-0.51c-0.05-0.04-0.39-0.29-0.13-0.1
			c0.26,0.2-0.08-0.06-0.13-0.1c-0.88-0.69-1.73-1.42-2.57-2.16c-0.99-0.86-2.58-1.04-3.54,0
			C217.38,218.6,217.19,220.27,218.24,221.19L218.24,221.19z"/>
	</g>
</g>
<g>
	<g>
		<path d="M280.46,208.36c-0.04-0.29-0.07-0.59-0.07-0.88c0-0.22,0.11-0.69,0.04-0.88c0.04,0.11-0.09,0.5-0.02,0.14
			c0.03-0.14,0.06-0.29,0.09-0.43c0.08-0.32,0.18-0.62,0.29-0.93c-1.61,0-3.21,0-4.82,0c0.05,0.21,0.1,0.43,0.14,0.64
			c0.02,0.09,0.06,0.45,0.01,0.03c-0.06-0.44,0,0,0.01,0.1c0.04,0.41,0.05,0.83,0.03,1.24c-0.01,0.22-0.03,0.44-0.05,0.66
			c-0.03,0.35,0.01-0.14,0.03-0.23c-0.03,0.12-0.04,0.24-0.06,0.36c-0.08,0.43-0.19,0.86-0.33,1.28c-0.06,0.19-0.13,0.37-0.2,0.55
			c-0.1,0.29,0.24-0.52,0.05-0.12c-0.04,0.09-0.08,0.18-0.12,0.27c-0.19,0.39-0.41,0.78-0.65,1.14c-0.05,0.08-0.11,0.16-0.16,0.24
			c-0.05,0.08-0.32,0.43-0.07,0.1c0.25-0.32-0.14,0.17-0.22,0.25c-0.31,0.35-0.64,0.67-1,0.97c-1,0.85-0.94,2.67,0,3.54
			c1.07,0.98,2.47,0.9,3.54,0c3.5-2.96,4.94-7.94,3.86-12.34c-0.25-1.02-1.34-1.88-2.41-1.84c-1.18,0.05-2,0.76-2.41,1.84
			c-0.51,1.35-0.7,2.88-0.51,4.32c0.09,0.69,0.22,1.25,0.73,1.77c0.43,0.43,1.15,0.76,1.77,0.73c0.65-0.03,1.32-0.24,1.77-0.73
			C280.14,209.67,280.54,208.99,280.46,208.36L280.46,208.36z"/>
	</g>
</g>
<g>
	<g>
		<path d="M277.94,213.97c3.22,0,3.22-5,0-5C274.72,208.97,274.71,213.97,277.94,213.97L277.94,213.97z"/>
	</g>
</g>
<g>
	<g>
		<path d="M209.66,195.35c-2.87,1.82-5.4,5.06-5.28,8.63c0.12,3.57,2.78,6.88,4.87,9.61c4.3,5.62,10.51,8.21,16.98,10.55
			c1.27,0.46,2.74-0.52,3.08-1.75c0.38-1.39-0.47-2.61-1.75-3.08c-4.77-1.73-9.77-3.55-13.26-7.41c-0.94-1.04-1.74-2.19-2.52-3.35
			c-0.72-1.07-1.55-2.16-2.07-3.35c-0.96-2.2,0.64-4.37,2.47-5.53C214.89,197.95,212.39,193.62,209.66,195.35L209.66,195.35z"/>
	</g>
</g>
<g>
	<g>
		<path d="M313.52,199c-1.05,11.19,6.69,22.4,17.48,25.47c3.52,1,7.25,1.25,10.87,1.67c3.55,0.41,7.09,0.85,10.65,1.23
			c6.7,0.72,13.43,0.47,19.05-3.69c2.87-2.12,5.26-4.75,7.51-7.5c2.6-3.17,4.99-6.51,7.17-9.98c-1.55-0.42-3.11-0.84-4.66-1.26
			c0.45,5.15,0.99,11.35-3.6,14.88c-2.23,1.72-5.03,2.75-7.67,3.63c-2.98,0.99-6.05,1.71-9.16,2.18c-5.99,0.9-12.24,0.76-18.22-0.18
			c-5.59-0.88-11.32-2.28-16.4-4.84c-4.77-2.4-9.26-5.93-10.74-11.28c-0.58,1.03-1.16,2.05-1.75,3.08
			c4.19-0.89,8.53-0.98,12.75-0.22c1.32,0.24,2.7-0.34,3.08-1.75c0.41-1.55,0.21-3.21-0.72-4.54c-1.15-1.64-3.16-1.56-4.32,0
			c-0.67,0.9-0.94,1.96-0.93,3.07c1.25-0.72,2.51-1.44,3.76-2.16c-0.69-0.31-1.38-0.62-2.07-0.92c-1.23-0.55-2.69-0.36-3.42,0.9
			c-0.62,1.07-0.34,2.87,0.9,3.42c0.69,0.31,1.38,0.62,2.07,0.92c1.67,0.74,3.77-0.1,3.76-2.16c0-0.29,0-0.21,0.25-0.54
			c-1.44,0-2.88,0-4.32,0c0.21,0.3,0.3,0.35,0.21,0.69c1.03-0.58,2.05-1.16,3.08-1.75c-5.14-0.92-10.29-0.86-15.41,0.22
			c-1.32,0.28-2.09,1.83-1.75,3.08c3.37,12.18,17.33,17.12,28.46,19.23c6.87,1.3,13.92,1.71,20.87,0.85
			c3.56-0.44,7.09-1.13,10.51-2.21c3.1-0.97,6.32-2.15,9.05-3.94c3.13-2.06,5.39-4.99,6.34-8.64c0.94-3.6,0.72-7.36,0.4-11.02
			c-0.21-2.42-3.28-3.47-4.66-1.26c-3.18,5.08-6.8,10.16-11.21,14.26c-2,1.85-4.28,3.4-6.93,4.14c-2.86,0.8-5.86,0.76-8.8,0.53
			c-3.23-0.25-6.44-0.69-9.66-1.06c-3.2-0.37-6.44-0.65-9.62-1.17c-5.07-0.83-9.33-2.97-12.66-6.93c-3.36-4-5-9.25-4.51-14.44
			c0.13-1.35-1.24-2.5-2.5-2.5C314.56,196.5,313.65,197.65,313.52,199L313.52,199z"/>
	</g>
</g>
<g>
	<g>
		<path d="M188.6,496.39c18.02,3.35,36.36,4.86,54.68,4.51c5.2-0.1,10.4-0.35,15.59-0.75c0.54-0.04,1.63-0.19,1.93-0.73
			c0.29-0.52-0.25-0.65-0.72-0.62c-18.15,1.39-36.41,0.95-54.46-1.36c-5.08-0.65-10.14-1.45-15.18-2.39
			C189.7,494.92,187.08,496.11,188.6,496.39L188.6,496.39z"/>
	</g>
</g>
<g>
	<g>
		<path d="M192.16,484.94c21.27,2.84,42.73,4.21,64.19,4.1c6.07-0.03,12.14-0.19,18.21-0.46c1.69-0.08,2.19-2.35,0.22-2.26
			c-21.27,0.95-42.6,0.43-63.8-1.57c-5.96-0.56-11.91-1.25-17.85-2.04C191.63,482.51,190.22,484.68,192.16,484.94L192.16,484.94z"/>
	</g>
</g>
</svg>
