<?xml version="1.0" encoding="UTF-8"?>
<svg id="Layer_1" data-name="Layer 1" xmlns="http://www.w3.org/2000/svg" viewBox="0 0 760.24 416.78">
  <defs>
    <style>
      .cls-1 {
        fill: #fff;
      }

      .cls-2 {
        font-family: FormaDJRDisplay-Black, 'Forma DJR Display';
        font-size: 56.73px;
        font-weight: 800;
        stroke-width: 2px;
      }

      .cls-2, .cls-3 {
        fill: #00aeef;
        stroke: #fff;
        stroke-miterlimit: 10;
      }

      .cls-3 {
        stroke-width: 3px;
      }
    </style>
  </defs>
  <path class="cls-3" d="M373.78,349.79c173.51,0,307.71-81.53,307.71-92.03,0-13.35-135.82-84.73-309.33-84.73-81.7,0-160.93,18.68-216.81,30.61-12.15,2.6-18.87,13.18-14.43,22.74l11.72,25.3c1.81,3.92,1.81,8.23,0,12.15l-11.72,25.3c-4.43,9.57,2.28,20.15,14.43,22.74,55.87,11.93,136.73,37.91,218.43,37.91Z"/>
  <g>
    <path class="cls-1" d="M233.99,262.69c.03,1.23,.72,3.38,.61,5.15,0,.16-.04,.52,0,.99-.19,1.71-.53,3.37-1,5-.47,1.63-1.05,3.26-1.71,4.89-.66,1.63-1.33,3.25-1.98,4.84-.65,1.59-1.18,3.21-1.59,4.86-2.13,2.58-4.44,5.33-6.91,8.19-2.47,2.87-5.12,5.6-7.83,8.18-2.71,2.58-5.41,4.89-8.01,6.95-2.6,2.05-5.15,3.65-7.66,4.83-1.14,.57-2.41,1.08-3.8,1.52-1.39,.43-2.82,.77-4.29,1.01-1.47,.24-2.94,.32-4.41,.24-1.48-.08-2.85-.29-4.08-.65-2.68-.77-5.03-2.04-6.83-3.63-1.81-1.59-3.06-3.4-3.55-5.47-.49-2.07-.26-4.29,.67-6.76,.92-2.47,2.44-5.05,4.22-7.84,1.79-2.79,3.73-5.66,5.52-8.65,1.78-2.99,3.33-5.93,4.56-8.78,.93-2.15,1.9-4.55,2.79-7.22,.89-2.67,1.4-5.43,2.22-8.25,.82-2.82,1.88-5.36,3.18-7.59,1.31-2.23,2.74-3.83,4.19-4.68,1.55-.9,3.35-1.3,5.22-1.22,1.88,.08,4.37,.1,5.76,.78,1.28,.63,2.78,2.9,4.03,5.17,1.24,2.27,2.31,4.76,3.19,7.46,.88,2.7,1.54,5.33,1.64,7.96s-.27,5.07-.99,7.29c-.72,2.23-1.76,4.1-2.99,5.64-1.23,1.54-2.53,2.49-3.78,2.87-1.03,.31-2.07,.41-3.1,.29-1.03-.12-1.91-.42-2.65-.9-.74-.48-1.31-1.15-1.74-2-.43-.85-.62-1.82-.62-2.92,.08-1.94,.3-3.42,.81-4.41,.51-.99,1.1-1.87,1.8-2.62,.7-.75,1.38-1.56,2.03-2.42,.65-.86,.97-2.2,.77-4.05-1.89-1.16-3.77-1.3-5.51-.43-1.75,.87-3.25,2.29-4.72,4.19-1.48,1.9-2.82,4.06-4.25,6.43-1.43,2.37-2.66,4.51-3.6,6.5-1.78,3.83-3.73,7.25-5.32,10.4s-2.69,5.82-3.02,8.15c-.33,2.33,.2,4.18,1.55,5.61,1.35,1.43,3.63,2.16,6.75,2.13,2.09-.02,4.28-.52,6.52-1.58,2.25-1.07,4.5-2.48,6.74-4.28,2.24-1.8,4.44-3.82,6.53-6.07,2.08-2.25,4.01-4.46,5.69-6.58,1.73-2.18,3.57-4.91,5.28-8.17,1.71-3.26,3-6.74,3.66-10.43,.66-3.69,.4-7.47-.24-11.52-.64-4.04-1.68-7.68-3.13-10.87-1.45-3.19-3.35-5.76-5.71-7.72-2.36-1.95-5.33-2.98-8.72-3.01-2.23-.02-4.29,.49-6.11,1.49-1.82,.99-3.56,2.14-5.2,3.44-1.64,1.3-3.21,2.6-4.69,3.9-1.49,1.3-3.02,2.28-4.59,2.95-1.58,.67-3.27,.88-5.08,.66-1.8-.22-4.49-1.15-6.11-2.79-1.75-1.77-3.07-4.91-4.04-7.38-.97-2.47-1.67-4.83-2.08-7.13-.41-2.29-.57-4.5-.44-6.64,.13-2.14,.47-4.07,.94-5.77,.68-2.48,1.81-5.17,3.57-7.94,1.76-2.77,3.79-5.29,6.02-7.53,1.17-1.17,2.51-2.37,4.02-3.59,1.51-1.22,3.09-2.32,4.71-3.31,1.62-.99,3.28-1.82,4.96-2.49,1.67-.67,3.24-1.09,4.66-1.24,1.35-.14,2.85,.01,4.52,.52,1.67,.5,3.24,1.26,4.71,2.29,1.48,1.03,2.76,2.24,3.84,3.61,1.08,1.38,1.7,2.82,1.76,4.2,.03,.81-.12,1.66-.4,2.49-.29,.83-.68,1.58-1.17,2.26-.49,.68-1.02,1.24-1.58,1.66-.56,.43-1.07,.71-1.51,.82-1.17,.27-2.32,.04-3.36-.63-1.03-.67-2.04-1.45-3.02-2.34-.98-.89-1.97-1.69-2.98-2.4-1.01-.71-2.12-1.08-3.3-1.09-1.4,0-2.87,.41-4.34,1.2-1.47,.79-2.87,1.75-4.18,2.86-1.31,1.12-2.46,2.32-3.44,3.59-.99,1.27-1.76,2.35-2.35,3.21-1.83,2.59-3.05,5.12-3.76,7.57-.72,2.45-1.04,5.55-.88,9.38,1.96,1.37,3.73,1.98,5.32,1.73,1.59-.25,3.15-.88,4.7-1.9,1.54-1.03,3.08-2.26,4.62-3.69,1.54-1.43,3.26-2.58,5.07-3.49,2.64-1.32,5.64-2.16,8.95-2.44,3.31-.28,6.63,.09,9.9,1.12,3.27,1.03,6.36,2.83,9.24,5.43,2.88,2.6,5.18,6.05,6.92,10.37,.32,.81,.57,1.47,.75,1.97,.15,.4,.3,.78,.41,1.14,.11,.35,.22,.79,.32,1.29,.45,1.42,.86,3.05,1.24,4.89,.38,1.84,.69,4.04,.92,6.6,0,.72,.03,1.41,.1,2.08,.07,.67,.15,1.41,.25,2.23Z"/>
    <path class="cls-1" d="M273.68,254.66c-.46,1.01-1.21,2.63-1.29,4.54-.08,1.91,.08,4.02,.31,6.13,.23,2.11,.44,4.25,.64,6.42,.19,2.17,.23,4.15,.13,5.91-.33,5.83-1.47,11.76-2.96,17.62-1.49,5.86-2.87,11.13-3.76,15.85-.22,1.18-.41,2.71-.5,4.59-.1,1.87-.27,3.7-.51,5.5-.24,1.79-.65,3.37-1.25,4.74-.61,1.37-1.68,2.13-3.14,2.4-.57,.11-1.34,.05-2.26-.23-.92-.28-1.82-.68-2.69-1.19-.87-.51-1.67-1.08-2.39-1.69-.72-.62-1.19-1.21-1.39-1.77-.41-1.04-.51-2.2-.29-3.51,.23-1.31,.61-2.68,1.13-4.13s1.13-2.93,1.79-4.45c.66-1.52,1.25-3,1.75-4.43,1.17-3.61,2.25-7.53,3.09-11.75,.83-4.22,1.54-8.42,1.99-12.58,.44-4.16,.64-8.22,.53-12.16s-.39-7.51-.26-10.66c-.72-.6-1.58-.99-2.58-1.18-1-.19-2.08-.22-3.23-.11s-2.27,.34-3.34,.66c-1.07,.32-2.59,.49-2.95,.81-.53,.47-.67,2.72-.59,4.45,.08,1.74,.15,3.42,.24,5.32,.1,1.9,.14,3.87,.11,5.91-.03,2.05-.21,4.12-.54,6.21-.77,3.83-1.98,7.62-3.48,11.37-1.5,3.74-2.68,7.05-3.36,9.96-.28,1.25-.47,2.68-.55,4.28-.08,1.6-.14,3.19-.16,4.77-.02,1.57-.1,3.02-.25,4.36-.15,1.34-.47,2.39-1.01,3.12-.72,.97-1.83,1.66-3.27,2.07-1.44,.41-2.93,.54-4.46,.39-1.53-.14-2.99-.6-4.33-1.36-1.35-.76-2.23-1.83-2.59-3.21,0-.76,.17-1.39,.5-1.91,.33-.51,.7-.97,1.09-1.37,.39-.4,.77-.81,1.13-1.22,.36-.41,.64-.96,.84-1.66,2.04-7.01,5.06-14.37,7.37-22.05,2.31-7.68,3.74-15.67,2.98-23.86-.76-8.2-2.22-17.42-3.2-25.85-.98-8.43-1.94-16.59-2.72-24.2-.04-.27-.06-.41-.09-.68,.03-.37,0-1.01-.12-1.91-.1-.76-.14-1.14-.23-1.89-.15-1.25-.23-2.57-.24-3.96-.01-1.39,.08-2.72,.27-3.99,.19-1.27,.56-2.37,1.1-3.33,.53-.96,1.31-1.65,2.31-2.08,1-.43,1.81-.68,2.39-.68,1.23,0,2.42,.39,3.42,1.06,1,.67,1.87,1.46,2.6,2.37,.73,.91,1.38,1.82,1.95,2.71,.57,.89,1.09,1.57,1.54,2-1.19,2.11-2.03,4.53-2.48,7.31-.45,2.78-.67,5.8-.64,9.08,.03,3.27,.26,6.76,.68,10.45,.42,3.69,.93,7.46,1.51,11.28,.79,.4,1.72,.67,2.78,.81,1.06,.14,2.15,.22,3.28,.21,1.12,0,2.18-.11,3.19-.32,1.01-.21,1.85-.46,2.52-.76-.06-4.11-.47-8.61-1.2-13.43-.73-4.83-1.37-9.64-1.87-14.37-.24-2.32-.5-4.58-.77-6.78-.27-2.19-.46-4.28-.58-6.27-.12-1.98-.09-3.8,.07-5.46,.16-1.66,.56-3.65,1.26-4.3,1-.93,3.63-1.01,5.52-.49,1.9,.52,3.86,1.49,4.25,2.38,.83,1.91,.56,6.31,.82,9.98,.26,3.67,.55,7.57,.89,11.67,.34,4.11,.74,8.31,1.2,12.57,.45,4.26,.99,8.4,1.59,12.37,.04,.3,.06,.45,.1,.75,.06,.06,.08,.09,.14,.15,.05,.4,.12,.74,.19,1.04,.08,.3,.14,.65,.2,1.04,.14,0,.21,0,.35,0,.6,1.59,1.15,3.36,1.64,5.31,.49,1.95,.69,4.1,.13,5.33Z"/>
    <path class="cls-1" d="M323.41,303.56c.1,2.17,.55,3.89,1.32,5.15,.77,1.26,1.54,2.51,2.3,3.75,.76,1.24,1.34,2.64,1.74,4.21s.32,3.67-.26,6.29c-1.12-.21-2-.87-2.59-1.96-.6-1.09-1.09-2.34-1.48-3.73-.38-1.39-.78-2.79-1.19-4.17-.41-1.39-1.3-3.16-1.74-3.25-.68-.14-2.78,1.46-3.91,2.58-1.13,1.12-2.23,2.34-3.29,3.68-1.06,1.33-2.1,2.66-3.12,3.97-1.02,1.31-2.23,2.37-3.48,3.21-.58,.39-1.32,.65-2.22,.69-.9,.04-1.79,.26-2.58,.67-.74,.38-1.6,.92-2.54,1.53-.95,.61-1.99,1.21-3.14,1.8-1.15,.59-2.39,1.06-3.74,1.42-1.35,.36-2.86,.5-4.49,.4-4.59-.27-8.44-1.71-11.13-4.17-2.69-2.46-4.54-5.61-5.36-9.54-.82-3.94-.72-8.42,.12-13.57,.84-5.15,2.04-10.48,3.23-16,1.2-5.52,2.25-11.02,2.98-16.44,.73-5.42,.88-10.44,1.34-14.74,.28-2.7,.61-5.47,1.01-8.3,.4-2.83,.78-5.47,1.14-7.93,.36-2.45,.62-4.65,.77-6.59,.16-1.94,.16-3.44-.02-4.5-.43-2.12-1.33-4.06-2.72-5.83-1.39-1.77-2.78-3.5-4.18-5.2-1.4-1.69-2.58-3.4-3.53-5.1-.95-1.7-1.12-3.5-.49-5.39,1.83,.27,3.25,1,4.26,2.18,1.01,1.18,1.89,2.56,2.65,4.14,.76,1.57,1.48,3.19,2.17,4.83,.69,1.65,2.14,3.95,2.82,4.05,.71,.11,2.62-1.62,3.54-2.89,.92-1.27,1.75-2.63,2.48-4.07,.73-1.44,1.4-2.98,2.01-4.59,.61-1.61,1.31-3.78,2.12-4.48,.88-.76,2.91-1.85,4-3.59,1.08-1.74,2.18-3.5,3.27-5.28,1.09-1.78,2.33-3.31,3.71-4.62,1.37-1.31,3.07-1.84,5.03-1.59,1.96,.25,3.32,1.25,4.13,3.03,.82,1.78,1.59,6.54,2.36,7.09,.74,.53,4.64,.11,6.3,1.03,1.66,.92,3.08,2.14,4.29,3.67,.12,.37,.26,.7,.43,.97,.17,.27,.34,.55,.51,.82,1.02,1.55,1.77,3.58,2.29,6.09,.51,2.52,.89,5.2,1.15,8.03,.26,2.83,.45,5.63,.56,8.38,.11,2.75,.24,5.14,.4,7.17,.16,2.03,.13,4.8-.08,8.3-.21,3.5-.48,7.02-.8,10.56-.32,3.54-.57,6.75-.85,9.62-.27,2.86-.48,4.64-.62,5.32,0,.12,0,.17,0,.29-.51,2.34-.9,4.81-1.15,7.41-.25,2.6-.66,5.26-1.24,7.95-.32,1.54-.74,3.05-1.26,4.52-.52,1.48-1.04,2.93-1.53,4.35-.5,1.42-.93,2.84-1.28,4.25-.35,1.42-.5,2.78-.43,4.11Zm-35.15,13.16c1.25,.5,2.86,.61,4.73,.17,1.87-.44,3.85-1.21,5.91-2.32,2.06-1.11,4.08-2.5,6.06-4.19,1.98-1.68,3.73-3.48,5.28-5.39,1.55-1.91,2.82-3.84,3.83-5.78,1.01-1.94,1.61-3.81,1.83-5.59-.37,0-.57-.25-.6-.77-.03-.51-.2-.82-.51-.91-1.6-3.44-3.15-6.99-4.72-10.66-1.56-3.67-3.14-7.55-4.86-11.69-.83-1.97-1.66-4.02-2.58-6.3-.92-2.28-1.9-4.49-2.95-6.63-1.05-2.14-2.19-4.11-3.42-5.92-1.24-1.8-2.6-3.19-4.09-4.16-.49,3.45-.98,7.4-1.47,11.87-.49,4.46-.9,9.02-1.69,13.67-.79,4.64-1.72,9.27-2.68,13.87-.96,4.6-1.75,8.94-2.16,13.04-.15,1.43-.22,3.09-.22,4.99s.15,3.71,.44,5.46c.29,1.74,.76,3.29,1.41,4.64s1.51,2.2,2.45,2.58Zm29.09-28.44c1.29-.86,2.25-2.24,2.9-4.14,.65-1.9,1.17-3.95,1.56-6.15,.39-2.2,.77-4.43,1.15-6.69,.37-2.26,.89-4.22,1.56-5.88-.05-3.36,.06-7.51,.39-12.41,.33-4.9,.56-9.84,.67-14.82,.11-4.98-.08-9.67-.6-14.07-.53-4.4-1.93-8.93-3.75-10.03-1.61-.98-5.24-.53-7.83,.33-2.59,.87-4.85,1.83-6.63,2.74-1.55,.79-2.88,1.47-3.82,2.09-.94,.62-1.77,1.29-2.46,2-.69,.71-1.29,1.59-1.77,2.64-.49,1.05-1.08,2.43-1.78,4.16-1.14,2.79-1.83,5.16-2.08,7.1-.25,1.94-.15,3.75,.28,5.4,.43,1.66,1.15,3.39,2.13,5.19,.98,1.8,2.2,3.98,3.56,6.5,1.56,2.89,3.18,6.12,4.85,9.6,1.67,3.48,3.17,6.78,4.53,10.05,1.37,3.28,2.6,6.33,3.79,9.18,1.19,2.84,2.29,5.24,3.34,7.2Z"/>
    <path class="cls-1" d="M365.6,295.25c.6,2.58,1.13,4.81,1.62,6.66,.58,2.16,1.2,4.13,1.62,5.75,.47,1.8,1,3.74,1.7,5.61,.7,1.88,1.36,3.76,1.99,5.64,.62,1.88,1.16,3.7,1.62,5.47,.46,1.77,.68,3.5,.61,5.13-.09,2.14-.54,4.07-1.3,5.73-.76,1.66-1.71,2.55-2.84,2.69-1.13,.13-2.07-.39-2.8-1.57s-1.35-2.68-1.86-4.5c-.51-1.83-.96-3.85-1.34-6.07-.38-2.23-.78-4.37-1.21-6.43-1.19-5.38-2.51-10.96-3.97-16.72-1.46-5.76-2.93-11.4-4.41-16.9-1.48-5.5-2.95-10.78-4.4-15.82-1.45-5.04-2.77-9.59-3.96-13.67-.59,1.3-1.02,2.77-1.29,4.41-.27,1.64-.48,3.36-.65,5.14-.16,1.79-.28,3.65-.36,5.58-.08,1.93-.2,3.85-.36,5.73-.27,2.47-.56,4.92-.89,7.33-.32,2.41-.6,4.83-.85,7.24-.24,2.41-.39,4.92-.44,7.54-.05,2.62,.08,5.42,.4,8.41-.48,.65-.87,1.36-1.17,2.12-.3,.76-.58,1.45-.85,2.06-.27,.62-.59,1.12-.97,1.53-.38,.4-.89,.57-1.53,.5-.27-.03-.7-.4-1.29-1.1-.59-.7-1.17-1.59-1.73-2.68-.56-1.08-1.06-2.28-1.49-3.58-.43-1.31-.58-2.54-.48-3.69,.12-1.43,.31-2.83,.6-4.17,.29-1.33,.55-2.92,.76-4.75,.48-3.96,.83-8.3,1.04-13.02,.21-4.72,.62-9.61,1.21-14.69,.81-6.93,1.66-13.85,2.58-20.77,.91-6.91,1.69-14.59,2.34-23.03,.43-5.36,.78-10.32,1.05-14.85,.27-4.53-.08-8.68-1.05-12.41,.43-1.73,.93-3.38,1.49-4.94,.56-1.56,1.59-3.69,2.14-3.85,1.24-.36,5.41,1.88,7.99,3.12,2.58,1.24,5.03,2.8,7.32,4.65,2.29,1.85,4.44,4.06,6.44,6.61,2,2.55,3.78,5.55,5.35,8.98,.05-.1,.08-.21,.08-.31,.76,1.72,1.49,3.68,2.19,5.87,.7,2.19,1.09,4.5,1.18,6.92,.08,2.42-.28,4.88-1.09,7.37-.81,2.49-2.3,4.86-4.46,7.04-2.4,2.41-4.96,4.56-7.57,6.44-2.62,1.89-5.27,3.76-7.97,5.63v4.24c.97,1.91,1.79,4.05,2.47,6.43,.67,2.38,1.32,4.82,1.94,7.3,.62,2.49,1.25,4.99,1.9,7.49,.65,2.51,1.4,4.78,2.27,6.84,.32,.62,.51,1.44,.57,2.46,.05,1.02,.19,1.94,.4,2.77-.06,.12-.1,.18-.16,.3,.65,3.29,1.27,6.22,1.86,8.79Zm-14.4-90.41c-1.08,4.31-1.72,9.32-1.94,15.04-.22,5.72-.46,11.44-.73,17.15,1.61-1.06,3.3-1.98,5.05-2.76,1.75-.77,3.45-1.67,5.09-2.69,1.64-1.02,3.16-2.27,4.53-3.75,1.38-1.48,2.5-3.46,3.36-5.95-.81-2.43-1.77-4.51-2.88-6.24-1.11-1.73-2.34-3.25-3.68-4.54-1.35-1.29-2.78-2.42-4.29-3.37-1.51-.95-3.02-1.92-4.53-2.9Z"/>
    <path class="cls-1" d="M382.22,302.95c-.49-4.05-1.03-8.5-1.62-13.37-.59-4.86-.95-10.16-.97-15.82,0-1.23,.05-2.43,.16-3.56,.11-1.14,.22-2.3,.32-3.49,.11-1.19,.18-2.33,.2-3.41,.03-1.08-.05-2.2-.2-3.33-.17-1.23-.49-2.33-.97-3.26-.49-.93-.99-1.8-1.5-2.63-.51-.82-.99-1.65-1.42-2.47-.43-.82-.68-1.7-.73-2.62-.16-1.65-.07-3.22,.28-4.72,.35-1.5,.84-2.84,1.46-4.04,.62-1.19,1.28-2.13,1.99-2.81,.7-.68,1.35-1.12,1.95-1.34,.86-6.32,1.89-12.49,3.08-18.51,1.19-6.02,2.65-11.43,4.38-16.22,1.73-4.78,3.8-8.8,6.21-12.01,2.41-3.21,5.29-5.15,8.65-5.79,3.3-.64,6.13,.38,8.48,3.01,2.35,2.63,4.38,6.19,6.08,10.64,1.7,4.45,3.15,9.42,4.34,14.9,1.19,5.48,2.32,10.68,3.4,15.61,.54,2.67,1.13,5.41,1.78,8.23,.65,2.82,1.07,5.52,1.25,8.11,.19,2.59,.05,5.08-.4,7.46-.46,2.38-1.96,5.99-3.2,6.47-1.38,.54-5.61-.66-8.55-1.03-2.94-.37-5.9-.74-8.84-1.11-2.95-.37-5.86-.63-8.73-.79-2.87-.16-7.36-.68-8.12-.08-.52,.41-.74,3.37-.93,5.44-.19,2.07-.31,4.3-.37,6.69-.05,2.39-.04,4.85,.04,7.38,.08,2.54,.2,4.98,.28,7.23,.08,2.25,.2,4.69,.45,7.23,.24,2.54,.56,5.08,.93,7.62,.38,2.55,.8,5.04,1.26,7.47,.46,2.44,.98,4.65,1.5,6.61,.38,1.44,.85,3.01,1.42,4.66,.57,1.66,1.16,3.19,1.79,4.58,.62,1.39,1.25,2.61,1.87,3.63,.62,1.03,1.18,1.65,1.66,1.85,1.49,.61,2.96,.25,4.34-1.02,1.38-1.27,2.68-3.12,3.9-5.53,1.22-2.41,2.31-5.18,3.29-8.3,.97-3.13,1.78-6.18,2.43-9.19,.43-1.86,.88-4.19,1.34-6.98,.46-2.79,.72-5.72,.77-8.81,.7-1.35,1.62-2.65,2.76-3.9,1.13-1.25,2.24-2.04,3.32-2.37,1.08-.33,2.03,.09,2.83,1.24,.81,1.15,1.29,3.41,1.46,6.76,.05,.91-.01,1.83-.2,2.76-.19,.92-.45,1.9-.77,2.92-.32,1.03-.68,2.12-1.05,3.25-.38,1.14-.76,2.43-1.13,3.87-.59,2.58-1.07,5.33-1.42,8.26-.35,2.93-.93,5.45-1.66,7.53-.94,2.67-2.2,5.5-3.85,8.35-1.65,2.86-3.49,5.42-5.51,7.67-2.03,2.25-4.17,4.04-6.41,5.34-2.24,1.31-4.44,1.69-6.53,1.23-1.87-.41-3.55-1.39-4.95-3-1.41-1.61-2.69-3.62-3.86-6.01-1.16-2.4-2.23-5.21-3.21-8.44-.97-3.22-1.98-6.71-3-10.45-.11-.42-.26-1-.41-1.71-.12-.6-.26-1.4-.45-2.33-.19-.93-.42-2.13-.69-3.58Zm22.32-104.62c-2.07-.61-3.96,.29-5.4,2.55-1.43,2.26-2.61,5.29-3.53,9.07-.92,3.78-1.69,7.93-2.31,12.44-.62,4.51-1.2,8.74-1.75,12.68,.65,.93,1.35,1.53,2.11,1.79,.76,.26,1.56,.39,2.39,.39,.84,0,1.71-.05,2.6-.15,.89-.1,1.81-.07,2.72,.01,1.43,.14,2.95,.38,4.46,.81,1.51,.43,2.98,.78,4.38,1.05,1.4,.27,2.73,.4,3.97,.36,1.24-.03,2.32-.4,3.24-1.1-.49-3.09-1.11-6.83-1.86-11.22-.76-4.39-1.68-8.61-2.76-12.66-1.08-4.05-2.31-7.6-3.69-10.63-1.38-3.04-2.95-4.91-4.59-5.39Z"/>
    <path class="cls-1" d="M461.99,326.34c-2.32,.12-4.52,.43-6.63,.99-2.11,.56-4.2,1.25-6.23,2.07-2.04,.82-4.03,1.72-5.96,2.71-1.94,.99-3.74,1.93-5.41,2.82-.22,.23-.42,.35-.61,.37-.19,.02-.39,.09-.61,.22-2.59,1.29-4.45,1.53-5.58,.73-1.13-.8-1.79-2.12-1.98-3.93-.19-1.81-.05-3.85,.4-6.12,.46-2.27,.96-4.19,1.5-5.75,.06,0,.1,0,.16-.01,.54-1.66,.92-3.46,1.13-5.39,.22-1.94,.39-3.9,.53-5.87,.14-1.98,.23-3.96,.28-5.93,.05-1.97,.21-3.94,.4-5.85,.24-2.31,.47-4.64,.77-6.92,.3-2.28,.58-4.56,.85-6.83,.27-2.27,.47-4.62,.61-7.04,.13-2.42,.17-4.93,.12-7.55,.11-.61,.22-1.18,.32-1.74,.11-.55,.21-1.08,.32-1.59,.48-1.71,.73-3.95,1.05-6.33,.27-2.02,.78-5.21,1.21-9.31,.43-4.1,.85-8.37,1.25-12.8,.4-4.43,.77-8.61,1.09-12.53,.32-3.92,.57-6.82,.73-8.7v-.3c.27-1.67,.43-3.38,.48-5.12,.05-1.73,.19-3.34,.4-4.82,.43-2.74,.93-5.38,1.49-7.89,.56-2.52,.85-5.16,.85-7.93,1.07-1.55,2.19-2.45,3.34-2.73,1.15-.28,2.24-.01,3.26,.78,1.02,.79,1.93,2.03,2.73,3.71,.8,1.68,1.37,3.7,1.69,6.07-.27,2.29-.75,4.14-1.45,5.55-.7,1.42-1.39,2.92-2.09,4.5-1.81,16.97-3.45,33.95-4.91,50.95-1.5,17.37-3.13,34.73-4.92,52.08,1.18,.79,2.5,1.12,3.95,.98,1.45-.14,2.94-.49,4.47-1.04,1.53-.55,3.1-1.16,4.7-1.82,1.61-.66,3.31-1.02,5.02-1.19,.4-.04,.97,.04,1.7,.29,.73,.24,1.52,.45,2.37,.62,.85,.17,1.7,.3,2.56,.37,.85,.08,1.6-.02,2.19-.29,.27-.12,.54-.36,.81-.67,.04,0,.06,0,.1-.01,.89-.49,2.06-1.16,3.55-2.01,1.49-.84,2.96-1.36,4.41-1.55,1.45-.19,2.68,.29,3.67,1.43,.99,1.13,1.39,3.44,1.15,6.92-.22,3.21-.67,5.93-1.32,8.1-.65,2.18-1.45,3.92-2.38,5.2-.94,1.29-1.94,2.15-2.99,2.58-1.05,.43-2.29,.51-2.96,.05-1.35-.92-3.3-2.23-5.54-2.41-2.25-.18-4.28-.21-6.07-.12Z"/>
    <path class="cls-1" d="M498.78,199c-.34,4.45-.59,8.97-.77,13.56-.17,4.59-.34,9.52-.53,14.75-.09,2.4-.33,4.78-.71,7.15-.38,2.37-.52,4.73-.58,6.9-.05,1.67,.03,3.5,.36,5.35,.33,1.86,.47,3.65,.37,5.33-.15,2.53-.31,5-.4,7.34-.09,2.35-.17,4.77-.27,7.23-.08,1.87-.35,3.72-.77,5.54-.42,1.81-.72,3.68-.89,5.58-.43,5.62-.58,11.5-.47,17.63s.34,12.2,.67,18.24c.08,1.05,.23,2.08,.44,3.11,.21,1.02,.35,2.06,.44,3.11,.08,1.05,.02,2.11-.19,3.18-.21,1.06-.73,2.22-1.55,3.46-.74-.03-1.63,.01-2.65,.13-1.02,.11-2.03,.2-3.02,.26-1,.06-1.91,.01-2.73-.15-.82-.16-1.39-.54-1.7-1.12-.62-11.37-.7-22.85-.51-34.13,.2-12.3,.88-24.76,1.63-37.16,.32-4.61,.45-9.32,.38-14.17-.07-4.85-.04-9.89,.25-14.89,.13-2.19,.42-4.49,.78-6.82s.54-4.7,.54-7.13c0-1.35-.08-2.78-.24-4.3-.16-1.52-.3-2.99-.42-4.42-.12-1.43-.16-2.73-.12-3.91,.04-1.17,.36-2.1,.77-2.72,.49-.74,1.27-1.23,2.41-1.22,1.13,0,2.32,.23,3.56,.66,1.24,.44,2.43,1,3.57,1.68,1.14,.68,1.92,1.33,2.35,1.95Z"/>
    <path class="cls-1" d="M562.45,295.45c.46,1.06,1.01,1.97,1.65,2.72,.64,.75,.96,1.6,.96,2.56-.01,3.08-.8,5.6-2.37,7.52-1.57,1.92-3.42,3.26-5.54,3.95-2.12,.68-4.27,.72-6.44,.08-2.17-.65-4.33-2.18-4.92-3.9-1.36-3.98-2.43-9.77-5.08-14.24-2.64-4.46-5.34-8.79-8.12-12.92-2.46-3.66-5.14-7.27-7.92-10.84-2.79-3.57-5.08-7.55-6.87-11.9-.99,.77-1.76,1.75-2.3,2.94-.54,1.19-.95,2.51-1.22,3.94-.27,1.44-.46,2.96-.56,4.56-.1,1.61-.19,3.13-.28,4.58-.19,2.98-.38,6.15-.57,9.52-.19,3.38-.31,6.83-.37,10.35-.05,3.52-.02,7.04,.11,10.55,.13,3.51,.37,6.88,.73,10.09-.54,1.54-1.39,2.79-2.54,3.75-1.15,.96-2.43,1.63-3.83,2s-2.81,.44-4.23,.2c-1.42-.24-2.59-.8-3.53-1.68-.68-2.87-.87-6.17-.57-9.88,.3-3.7,.54-7.36,.71-10.99,0-.26,.02-.49,.06-.72,.04-.22,.07-.41,.07-.59,0-3.43,.2-7.19,.6-11.25,.39-4.06,.81-8.63,1.26-13.68,.18-2.44,.42-5.32,.73-8.62,.31-3.3,.62-6.53,.94-9.69,.31-3.16,.63-6,.94-8.52,.31-2.52,.51-4.23,.6-5.14,.44-1.8,.67-3.77,.67-5.95,0-2.17,.1-4.26,.28-6.25,.18-1.99,.64-3.72,1.39-5.17,.75-1.44,2.16-2.34,4.19-2.57,1.58-.18,3.02,0,4.24,.48,1.22,.48,2.33,1.21,3.32,2.17,1,.96,1.93,2.05,2.8,3.25,.86,1.2,1.71,2.45,2.53,3.73,.44,5.08,1.38,9.72,2.84,13.88,1.46,4.16,3.19,8.02,5.21,11.56,2.02,3.54,4.17,6.89,6.43,10.05,2.26,3.16,4.41,6.31,6.44,9.46,1.01-.7,1.64-1.37,1.88-2.04,.24-.67,.32-1.36,.23-2.08-.09-.72-.27-1.4-.54-2.05-.28-.65-.41-1.28-.4-1.91-.22-7.33-.5-14.46-.87-21.54-.37-7.09-1.48-14.1-3.33-21.27-.19-.63-.56-1.46-1.12-2.5-.56-1.04-1.1-2.2-1.61-3.49-.51-1.28-.89-2.61-1.12-3.97-.23-1.36-.11-2.66,.36-3.89,.85-1.92,2.33-2.97,4.45-3.11,2.12-.15,4.32,.35,6.61,1.46,2.28,1.1,4.36,2.64,6.22,4.57s2.92,3.94,3.19,6.06c.09,.8,.02,1.48-.22,2.02-.24,.55-.52,1.09-.85,1.62-.33,.53-.66,1.1-.99,1.7-.33,.6-.55,1.31-.65,2.13-.2,1.15-.01,2.25,.55,3.27,.56,1.03,.92,2.2,1.1,3.52,.36,2.23,.6,4.59,.72,7.09,.12,2.5,.19,5.12,.21,7.87,.02,2.74,.06,5.55,.12,8.43,.06,2.88,.21,5.74,.47,8.56,.24,2.69,.45,5.43,.61,8.19,.16,2.77,.32,5.45,.48,8.04,.16,2.6,.4,5.09,.7,7.47,.31,2.38,.78,4.54,1.42,6.44Z"/>
    <path class="cls-1" d="M576.8,285.11c-.79-2.24-1.67-4.7-2.63-7.42-.96-2.71-1.52-5.78-1.52-9,0-.7,.11-1.4,.3-2.06,.19-.66,.38-1.33,.58-2.01,.19-.68,.31-1.33,.37-1.95,.05-.62-.06-1.25-.31-1.9-.27-.69-.8-1.34-1.62-1.89-.82-.55-1.66-1.08-2.53-1.59-.87-.51-1.67-1.03-2.4-1.55-.73-.52-1.15-1.07-1.23-1.63-.27-1.01-.09-1.95,.52-2.82,.61-.86,1.46-1.61,2.53-2.23,1.07-.62,2.2-1.07,3.4-1.35,1.2-.28,2.3-.43,3.3-.45,1.5-3.47,3.27-6.77,5.28-9.88,2.01-3.11,4.46-5.74,7.29-7.83,2.83-2.09,6.17-3.52,9.93-4.25,3.76-.73,8.15-.42,12.97,.85,4.74,1.25,8.55,3.19,11.57,5.56,3.03,2.37,5.48,4.9,7.44,7.45,1.97,2.55,3.53,4.98,4.76,7.27,1.23,2.29,2.34,4.24,3.36,5.94,.51,.91,1.05,1.8,1.63,2.67,.58,.87,.93,1.62,1.07,2.3,.14,.68-.01,1.27-.46,1.84-.45,.57-1.69,1.38-3.15,1.55-2.28,.26-5.87-.31-9.38-.51-3.51-.21-7.29-.43-11.3-.69-4.01-.25-8.19-.49-12.48-.68-4.29-.2-10.38-1.33-12.57-.4-.57,.24-1.22,1.66-1.54,2.7-.32,1.04-.54,2.17-.65,3.38-.11,1.21-.11,2.46,0,3.75,.11,1.29,.29,2.55,.39,3.66,.11,1.11,.29,2.38,.65,3.64,.37,1.27,.85,2.52,1.43,3.75,.58,1.23,1.23,2.42,1.93,3.57,.71,1.14,1.5,2.15,2.31,3.01,.58,.62,1.31,1.3,2.17,1.97,.87,.67,1.77,1.26,2.7,1.76,.93,.5,1.86,.89,2.79,1.19,.92,.29,1.74,.39,2.45,.3,2.21-.29,4.29-1.08,6.23-2.25,1.93-1.17,3.72-2.56,5.35-4.09,1.64-1.54,3.08-3.12,4.34-4.71,1.26-1.6,2.29-3.03,3.11-4.33,.55-.82,1.11-1.79,1.69-2.88,.58-1.09,.91-2.15,1.01-3.21,.85-.57,1.94-1.14,3.23-1.69,1.29-.55,2.5-.92,3.64-1.15,1.14-.23,2.09-.21,2.87,0,.78,.21,1.21,.74,1.33,1.64,.04,.24-.03,.51-.22,.8-.19,.29-.44,.62-.77,.99-.32,.37-.68,.77-1.07,1.2-.39,.43-.78,.92-1.18,1.47-.63,.97-1.15,2.01-1.54,3.13-.39,1.12-1.02,2.21-1.84,3.25-1.03,1.31-2.46,2.9-4.42,4.76-1.95,1.86-4.21,3.79-6.82,5.75-2.61,1.96-5.48,3.85-8.62,5.59-3.14,1.74-6.32,3.02-9.46,3.76-2.82,.66-5.37,.88-7.56,.59-2.19-.29-4.22-.9-6.08-1.81-1.86-.91-3.58-2.14-5.15-3.68-1.57-1.53-3.21-3.23-4.89-5.1-.18-.21-.44-.51-.66-.88-.19-.3-.42-.75-.73-1.24-.31-.49-.69-1.13-1.13-1.9Zm35.68-50.87c-3.03-1.17-5.74-1.46-7.9-.85-2.16,.61-3.99,1.76-5.43,3.4-1.45,1.65-2.68,3.55-3.69,5.69-1.01,2.14-1.97,4.15-2.86,6.05,1.03,.59,2.13,1,3.32,1.25,1.18,.25,2.42,.44,3.72,.58,1.29,.14,2.61,.25,3.95,.35,1.34,.1,2.7,.26,4.04,.45,2.13,.3,4.27,.64,6.38,1.06,2.11,.41,4.09,.77,5.94,1.08,1.85,.31,3.54,.55,5.09,.72,1.55,.17,2.85,.2,3.94,.1-.54-1.11-1.24-2.49-2.12-4.25-.88-1.76-1.98-3.6-3.32-5.56-1.35-1.96-2.92-3.9-4.76-5.78-1.83-1.88-3.94-3.39-6.31-4.31Z"/>
  </g>
  <text class="cls-2" transform="translate(116.52 344.35) rotate(23.4) scale(1.21 1)"><tspan x="0" y="0">S</tspan></text>
  <text class="cls-2" transform="translate(163.07 364.22) rotate(17.44) scale(1.21 1)"><tspan x="0" y="0">K</tspan></text>
  <text class="cls-2" transform="translate(211.82 379.36) rotate(12.07) scale(1.21 1)"><tspan x="0" y="0">A</tspan></text>
  <text class="cls-2" transform="translate(255.92 388.85) rotate(8.36) scale(1.21 1)"><tspan x="0" y="0">T</tspan></text>
  <text class="cls-2" transform="translate(300.53 395.29) rotate(4.72) scale(1.21 1)"><tspan x="0" y="0">E</tspan></text>
  <text class="cls-2" transform="translate(341.53 398.39) rotate(2.6) scale(1.21 1)"><tspan x="0" y="0"> </tspan></text>
  <text class="cls-2" transform="translate(351.94 399.16) rotate(.49) scale(1.21 1)"><tspan x="0" y="0">A</tspan></text>
  <text class="cls-2" transform="translate(404.72 399.37) rotate(-3.83) scale(1.21 1)"><tspan x="0" y="0">N</tspan></text>
  <text class="cls-2" transform="translate(454.48 396.02) rotate(-8.03) scale(1.21 1)"><tspan x="0" y="0">D</tspan></text>
  <text class="cls-2" transform="translate(503.87 388.59) rotate(-10.74) scale(1.21 1)"><tspan x="0" y="0"> </tspan></text>
  <text class="cls-2" transform="translate(515.82 386.78) rotate(-13.62) scale(1.21 1)"><tspan x="0" y="0">S</tspan></text>
  <text class="cls-2" transform="translate(564.68 374.85) rotate(-18.82) scale(1.21 1)"><tspan x="0" y="0">U</tspan></text>
  <text class="cls-2" transform="translate(611.19 358.97) rotate(-25.02) scale(1.21 1)"><tspan x="0" y="0">R</tspan></text>
  <text class="cls-2" transform="translate(656.47 337.45) rotate(-32.32) scale(1.21 1)"><tspan x="0" y="0">F</tspan></text>
  <text class="cls-2" transform="translate(689.87 315.54) rotate(-37.55) scale(1.21 1)"><tspan x="0" y="0"> </tspan></text>
</svg>